# Blender v2.83.0 OBJ File: ''
# www.blender.org
mtllib Coin.mtl
o polySurface1_Mesh
v -0.498699 -0.161631 0.035223
v -0.310345 0.423213 0.035223
v -0.000684 -0.521493 0.035223
v 0.495460 -0.159056 0.035223
v 0.304079 0.424804 0.035223
v -0.003391 0.523827 0.035224
v 0.494623 0.163965 0.035223
v 0.306269 -0.420878 0.035223
v -0.308155 -0.422469 0.035223
v -0.499535 0.161391 0.035223
v 0.158186 0.498665 0.035223
v -0.164836 0.497828 0.035223
v 0.420008 0.309474 0.035223
v 0.520622 0.002521 0.035223
v 0.421599 -0.304950 0.035223
v 0.160760 -0.495494 0.035223
v -0.162261 -0.496330 0.035223
v -0.424083 -0.307140 0.035223
v -0.524698 -0.000186 0.035223
v -0.425674 0.307284 0.035223
v -0.366902 -0.120178 0.035173
v -0.386115 -0.001147 0.035173
v -0.367605 0.117995 0.035173
v -0.313184 0.225586 0.035173
v -0.228179 0.311093 0.035173
v -0.120911 0.366148 0.035173
v -0.001880 0.385361 0.035173
v 0.117261 0.366851 0.035173
v 0.224852 0.312430 0.035173
v 0.310360 0.227425 0.035173
v 0.365415 0.120157 0.035173
v 0.384627 0.001126 0.035173
v 0.366117 -0.118015 0.035173
v 0.311696 -0.225606 0.035173
v 0.226691 -0.311114 0.035173
v 0.119423 -0.366169 0.035173
v 0.000393 -0.385381 0.035173
v -0.118749 -0.366871 0.035173
v -0.226340 -0.312450 0.035173
v -0.311847 -0.227445 0.035173
v -0.386115 -0.001147 0.008616
v -0.114484 -0.001606 0.008667
v -0.366902 -0.120178 0.008616
v -0.129833 -0.046575 0.008667
v -0.367605 0.117995 0.008616
v -0.101833 0.035460 0.008667
v -0.313184 0.225586 0.008616
v -0.089913 0.070384 0.008667
v -0.228179 0.311093 0.008616
v -0.075698 0.112031 0.008667
v -0.120911 0.366148 0.008616
v -0.031790 0.112272 0.008667
v -0.001880 0.385361 0.008616
v -0.001964 0.112436 0.008667
v 0.117261 0.366851 0.008616
v 0.044248 0.112691 0.008667
v 0.090078 0.112943 0.008667
v 0.224852 0.312430 0.008616
v 0.310360 0.227425 0.008616
v 0.103484 0.070396 0.008667
v 0.365415 0.120157 0.008616
v 0.115726 0.031538 0.008667
v 0.384627 0.001126 0.008616
v 0.130750 -0.016144 0.008667
v 0.140359 -0.046643 0.008667
v 0.366117 -0.118015 0.008616
v 0.311696 -0.225606 0.008616
v 0.092383 -0.081292 0.008667
v 0.226691 -0.311114 0.008616
v 0.062659 -0.102760 0.008667
v 0.119423 -0.366169 0.008616
v 0.035621 -0.122287 0.008667
v 0.002634 -0.146111 0.008667
v 0.000393 -0.385381 0.008616
v -0.118749 -0.366871 0.008616
v -0.040975 -0.113344 0.008667
v -0.226340 -0.312450 0.008616
v -0.078557 -0.085104 0.008667
v -0.311847 -0.227445 0.008616
v -0.107388 -0.063441 0.008667
v -0.498699 -0.161631 -0.040934
v -0.310345 0.423213 -0.040934
v -0.000684 -0.521493 -0.040935
v 0.495460 -0.159056 -0.040934
v 0.304079 0.424804 -0.040934
v -0.003391 0.523827 -0.040934
v 0.494623 0.163965 -0.040934
v 0.306269 -0.420878 -0.040935
v -0.308155 -0.422469 -0.040935
v -0.499535 0.161391 -0.040934
v 0.158186 0.498665 -0.040934
v -0.164836 0.497828 -0.040934
v 0.420008 0.309474 -0.040934
v 0.520622 0.002521 -0.040934
v 0.421599 -0.304950 -0.040935
v 0.160760 -0.495494 -0.040935
v -0.162261 -0.496330 -0.040935
v -0.424083 -0.307140 -0.040935
v -0.524698 -0.000186 -0.040934
v -0.425674 0.307284 -0.040934
v -0.366902 -0.120178 -0.040884
v -0.386115 -0.001147 -0.040884
v -0.367605 0.117995 -0.040884
v -0.313184 0.225586 -0.040884
v -0.228179 0.311093 -0.040884
v -0.120911 0.366148 -0.040884
v -0.001880 0.385361 -0.040884
v 0.117261 0.366851 -0.040884
v 0.224852 0.312430 -0.040884
v 0.310360 0.227425 -0.040884
v 0.365415 0.120157 -0.040884
v 0.384627 0.001126 -0.040884
v 0.366117 -0.118015 -0.040884
v 0.311696 -0.225606 -0.040884
v 0.226691 -0.311114 -0.040884
v 0.119423 -0.366169 -0.040884
v 0.000393 -0.385381 -0.040884
v -0.118749 -0.366871 -0.040884
v -0.226340 -0.312450 -0.040884
v -0.311847 -0.227445 -0.040884
v -0.386115 -0.001147 -0.014327
v -0.114484 -0.001606 -0.014378
v -0.366902 -0.120178 -0.014327
v -0.129833 -0.046575 -0.014378
v -0.367605 0.117995 -0.014327
v -0.101833 0.035460 -0.014378
v -0.313184 0.225586 -0.014327
v -0.089913 0.070384 -0.014378
v -0.228179 0.311093 -0.014327
v -0.075698 0.112031 -0.014378
v -0.120911 0.366148 -0.014327
v -0.031790 0.112272 -0.014378
v -0.001880 0.385361 -0.014327
v -0.001964 0.112436 -0.014378
v 0.117261 0.366851 -0.014327
v 0.044248 0.112691 -0.014378
v 0.090078 0.112943 -0.014378
v 0.224852 0.312430 -0.014327
v 0.310360 0.227425 -0.014327
v 0.103484 0.070396 -0.014378
v 0.365415 0.120157 -0.014327
v 0.115726 0.031538 -0.014378
v 0.384627 0.001126 -0.014327
v 0.130750 -0.016144 -0.014378
v 0.140359 -0.046643 -0.014378
v 0.366117 -0.118015 -0.014327
v 0.311696 -0.225606 -0.014327
v 0.092383 -0.081292 -0.014378
v 0.226691 -0.311114 -0.014327
v 0.062659 -0.102760 -0.014378
v 0.119423 -0.366169 -0.014327
v 0.035621 -0.122287 -0.014378
v 0.002634 -0.146111 -0.014378
v 0.000393 -0.385381 -0.014327
v -0.118749 -0.366871 -0.014327
v -0.040975 -0.113344 -0.014378
v -0.226340 -0.312450 -0.014327
v -0.078557 -0.085104 -0.014378
v -0.311847 -0.227445 -0.014327
v -0.107388 -0.063441 -0.014378
vt 0.312210 0.697756
vt 0.385683 0.764086
vt 0.323293 0.859638
vt 0.223613 0.769713
vt 0.293235 0.326316
vt 0.252855 0.416690
vt 0.142976 0.388547
vt 0.197697 0.265958
vt 0.640631 0.193489
vt 0.542202 0.183012
vt 0.535289 0.071480
vt 0.668788 0.085641
vt 0.874309 0.482836
vt 0.853856 0.385987
vt 0.958069 0.346613
vt 0.985855 0.477954
vt 0.671333 0.794490
vt 0.757122 0.745111
vt 0.827048 0.833722
vt 0.710721 0.900734
vt 0.476056 0.804466
vt 0.574485 0.814943
vt 0.579381 0.928520
vt 0.445882 0.914359
vt 0.823452 0.671638
vt 0.863832 0.581264
vt 0.971694 0.611453
vt 0.916973 0.734042
vt 0.804477 0.300199
vt 0.731005 0.233868
vt 0.791377 0.140362
vt 0.891057 0.230286
vt 0.445354 0.203465
vt 0.359565 0.252844
vt 0.287622 0.166278
vt 0.403948 0.099266
vt 0.242378 0.515119
vt 0.262831 0.611967
vt 0.156601 0.653387
vt 0.128815 0.522046
vt 0.465722 0.493464
vt 0.255458 0.479015
vt 0.275749 0.386663
vt 0.455686 0.457576
vt 0.473993 0.523043
vt 0.264698 0.573116
vt 0.481786 0.550914
vt 0.302565 0.659757
vt 0.491295 0.582017
vt 0.362913 0.733288
vt 0.513245 0.583738
vt 0.444474 0.781124
vt 0.548794 0.587718
vt 0.536826 0.801416
vt 0.578193 0.588829
vt 0.630928 0.792176
vt 0.620839 0.592173
vt 0.720007 0.751477
vt 0.632650 0.562528
vt 0.788267 0.691522
vt 0.642331 0.538230
vt 0.836104 0.609961
vt 0.652974 0.511518
vt 0.856395 0.517609
vt 0.667245 0.469437
vt 0.847155 0.423508
vt 0.631208 0.440192
vt 0.809288 0.336867
vt 0.608881 0.422072
vt 0.746501 0.266168
vt 0.588572 0.405591
vt 0.664941 0.218332
vt 0.563794 0.385482
vt 0.572589 0.198040
vt 0.528205 0.409216
vt 0.478488 0.207280
vt 0.497533 0.429670
vt 0.391847 0.245147
vt 0.474004 0.445361
vt 0.321148 0.307934
vt 0.019495 0.799993
vt 0.019495 0.849992
vt 0.004702 0.849992
vt 0.004702 0.799993
vt 0.019495 0.749994
vt 0.004702 0.749994
vt 0.019495 0.699995
vt 0.004702 0.699995
vt 0.019495 0.649997
vt 0.004702 0.649997
vt 0.019495 0.599998
vt 0.004702 0.599998
vt 0.019495 0.549999
vt 0.004702 0.549999
vt 0.019495 0.500000
vt 0.004702 0.500000
vt 0.019495 0.450002
vt 0.004702 0.450002
vt 0.019495 0.400003
vt 0.004702 0.400003
vt 0.019495 0.350004
vt 0.004702 0.350004
vt 0.019495 0.300005
vt 0.004702 0.300005
vt 0.019495 0.250006
vt 0.004702 0.250006
vt 0.019495 0.200008
vt 0.004702 0.200008
vt 0.019495 0.150009
vt 0.004702 0.150009
vt 0.019495 0.100010
vt 0.004702 0.100010
vt 0.019495 0.050011
vt 0.004702 0.050011
vt 0.019495 0.000012
vt 0.004702 0.000012
vt 0.019495 0.949989
vt 0.019495 0.999988
vt 0.004702 0.999988
vt 0.004702 0.949989
vt 0.019495 0.899990
vt 0.004702 0.899990
vt 0.115471 0.200011
vt 0.115471 0.250009
vt 0.084192 0.250009
vt 0.084192 0.200011
vt 0.115471 0.150012
vt 0.084192 0.150012
vt 0.115471 0.949984
vt 0.115471 0.999982
vt 0.084192 0.999982
vt 0.084192 0.949984
vt 0.115471 0.749991
vt 0.115471 0.799989
vt 0.084192 0.799989
vt 0.084192 0.749991
vt 0.115471 0.549998
vt 0.115471 0.599996
vt 0.084192 0.599996
vt 0.084192 0.549998
vt 0.115471 0.450002
vt 0.115471 0.500000
vt 0.084192 0.500000
vt 0.084192 0.450002
vt 0.115471 0.649995
vt 0.115471 0.699993
vt 0.084192 0.699993
vt 0.084192 0.649995
vt 0.115471 0.849988
vt 0.115471 0.899986
vt 0.084192 0.899986
vt 0.084192 0.849988
vt 0.115471 0.050016
vt 0.115471 0.100014
vt 0.084192 0.100014
vt 0.084192 0.050016
vt 0.115471 0.300007
vt 0.115471 0.350005
vt 0.084192 0.350005
vt 0.084192 0.300007
vt 0.115471 0.400003
vt 0.084192 0.400003
vt 0.115471 0.000018
vt 0.084192 0.000018
vt 0.323098 0.710538
vt 0.238462 0.787115
vt 0.342792 0.871600
vt 0.400001 0.772859
vt 0.284354 0.340639
vt 0.185735 0.285457
vt 0.137625 0.410789
vt 0.248848 0.433036
vt 0.624178 0.189485
vt 0.646547 0.080290
vt 0.512483 0.073264
vt 0.525330 0.184269
vt 0.872944 0.465968
vt 0.984071 0.455148
vt 0.949325 0.325475
vt 0.847359 0.370347
vt 0.686866 0.787996
vt 0.731861 0.891990
vt 0.844450 0.818873
vt 0.769901 0.734115
vt 0.492398 0.808365
vt 0.468123 0.919710
vt 0.602187 0.926736
vt 0.591245 0.813581
vt 0.832221 0.657212
vt 0.928935 0.714543
vt 0.977045 0.589212
vt 0.867728 0.564815
vt 0.793478 0.287312
vt 0.876209 0.212885
vt 0.771878 0.128400
vt 0.716575 0.224991
vt 0.429709 0.209854
vt 0.382809 0.108010
vt 0.270220 0.181127
vt 0.346674 0.263735
vt 0.243632 0.531883
vt 0.130599 0.544852
vt 0.165345 0.674526
vt 0.269217 0.627504
vt 0.646983 0.502591
vt 0.658578 0.472203
vt 0.852795 0.431651
vt 0.855271 0.526744
vt 0.636019 0.529373
vt 0.831952 0.618378
vt 0.624383 0.557798
vt 0.781458 0.698321
vt 0.610265 0.592284
vt 0.708732 0.758748
vt 0.588307 0.590676
vt 0.624555 0.793006
vt 0.560101 0.588611
vt 0.530200 0.799145
vt 0.523333 0.585919
vt 0.438567 0.775826
vt 0.480670 0.582796
vt 0.358624 0.725332
vt 0.473463 0.551710
vt 0.298197 0.652606
vt 0.467555 0.526231
vt 0.263202 0.564766
vt 0.461060 0.498219
vt 0.257062 0.470411
vt 0.450578 0.453009
vt 0.280381 0.378778
vt 0.487682 0.428560
vt 0.330875 0.298835
vt 0.512485 0.414013
vt 0.403601 0.238408
vt 0.535047 0.400781
vt 0.491441 0.203412
vt 0.562573 0.384637
vt 0.582132 0.198011
vt 0.594178 0.413464
vt 0.677429 0.220592
vt 0.616698 0.432395
vt 0.757372 0.271085
vt 0.642311 0.457366
vt 0.817799 0.343812
vt 0.004702 0.749994
vt 0.019495 0.749994
vt 0.019495 0.799993
vt 0.004702 0.799993
vt 0.004702 0.699995
vt 0.019495 0.699995
vt 0.004702 0.649996
vt 0.019495 0.649996
vt 0.004702 0.599998
vt 0.019495 0.599998
vt 0.004702 0.549999
vt 0.019495 0.549999
vt 0.004702 0.500000
vt 0.019495 0.500000
vt 0.004702 0.450001
vt 0.019495 0.450001
vt 0.004702 0.400002
vt 0.019495 0.400002
vt 0.004702 0.350004
vt 0.019495 0.350004
vt 0.004702 0.300005
vt 0.019495 0.300005
vt 0.004702 0.250006
vt 0.019495 0.250006
vt 0.004702 0.200007
vt 0.019495 0.200007
vt 0.004702 0.150008
vt 0.019495 0.150008
vt 0.004702 0.100010
vt 0.019495 0.100010
vt 0.004702 0.050011
vt 0.019495 0.050011
vt 0.004702 0.000012
vt 0.019495 0.000012
vt 0.004702 0.949989
vt 0.019495 0.949989
vt 0.019495 0.999988
vt 0.004702 0.999988
vt 0.004702 0.899990
vt 0.019495 0.899990
vt 0.004702 0.849992
vt 0.019495 0.849992
vt 0.034745 0.198147
vt 0.071760 0.198147
vt 0.071760 0.254965
vt 0.034745 0.254965
vt 0.071760 0.301796
vt 0.034745 0.301796
vt 0.071760 0.345922
vt 0.034745 0.345922
vt 0.071760 0.398541
vt 0.034745 0.398541
vt 0.071760 0.451044
vt 0.034745 0.451044
vt 0.071760 0.486709
vt 0.034745 0.486709
vt 0.071760 0.541967
vt 0.034745 0.541967
vt 0.071760 0.596769
vt 0.034745 0.596769
vt 0.071760 0.650109
vt 0.034745 0.650109
vt 0.071760 0.698824
vt 0.034745 0.698824
vt 0.071760 0.758602
vt 0.034745 0.758602
vt 0.071760 0.796839
vt 0.034745 0.796839
vt 0.071760 0.867602
vt 0.034745 0.867602
vt 0.071760 0.911444
vt 0.034745 0.911444
vt 0.071760 0.951325
vt 0.034746 0.951326
vt 0.071760 0.999981
vt 0.034746 0.999981
vt 0.034745 0.000019
vt 0.071760 0.000019
vt 0.071760 0.065244
vt 0.034745 0.065244
vt 0.071760 0.121455
vt 0.034745 0.121455
vt 0.071760 0.164577
vt 0.034745 0.164577
vn 0.0003 -0.0002 1.0000
vn 0.0002 -0.0003 1.0000
vn 0.0003 0.0002 1.0000
vn 0.0003 0.0001 1.0000
vn -0.0001 0.0004 1.0000
vn -0.0000 0.0004 1.0000
vn -0.0004 -0.0000 1.0000
vn -0.0004 0.0001 1.0000
vn -0.0001 -0.0003 1.0000
vn -0.0002 -0.0003 1.0000
vn 0.0001 -0.0003 1.0000
vn 0.0000 -0.0004 1.0000
vn -0.0003 -0.0002 1.0000
vn -0.0004 -0.0001 1.0000
vn -0.0003 0.0002 1.0000
vn -0.0002 0.0003 1.0000
vn 0.0001 0.0004 1.0000
vn 0.0002 0.0003 1.0000
vn 0.0004 0.0000 1.0000
vn 0.0003 -0.0001 1.0000
vn -0.0002 0.0000 1.0000
vn -0.0002 -0.0001 1.0000
vn -0.0002 0.0001 1.0000
vn -0.0001 0.0002 1.0000
vn -0.0000 0.0002 1.0000
vn 0.0001 0.0002 1.0000
vn 0.0002 0.0001 1.0000
vn 0.0002 0.0000 1.0000
vn 0.0002 -0.0001 1.0000
vn 0.0001 -0.0001 1.0000
vn 0.0001 -0.0002 1.0000
vn -0.0000 -0.0002 1.0000
vn -0.0001 -0.0002 1.0000
vn -0.0001 -0.0001 1.0000
vn 1.0000 0.0029 0.0000
vn 0.9501 0.3118 0.0000
vn 0.9520 -0.3062 -0.0000
vn 0.8107 -0.5854 0.0000
vn 0.5902 -0.8073 0.0000
vn 0.3118 -0.9501 0.0000
vn 0.0029 -1.0000 0.0000
vn -0.3062 -0.9520 0.0000
vn -0.5854 -0.8107 0.0000
vn -0.8073 -0.5902 -0.0000
vn -0.9501 -0.3118 -0.0000
vn -1.0000 -0.0029 0.0000
vn -0.9520 0.3062 0.0000
vn -0.8107 0.5854 0.0000
vn -0.5902 0.8073 0.0000
vn -0.3118 0.9501 0.0000
vn -0.0029 1.0000 0.0000
vn 0.3062 0.9520 0.0000
vn 0.5854 0.8107 0.0000
vn 0.8073 0.5902 0.0000
vn -0.9503 -0.3115 0.0000
vn -1.0000 -0.0026 0.0000
vn -0.8075 -0.5899 0.0000
vn 0.3115 -0.9503 0.0000
vn 0.0026 -1.0000 0.0000
vn 1.0000 0.0026 0.0000
vn 0.9519 -0.3066 0.0000
vn 0.3066 0.9519 0.0000
vn 0.5857 0.8105 0.0000
vn -0.3115 0.9503 0.0000
vn -0.0026 1.0000 0.0000
vn 0.8075 0.5899 0.0000
vn 0.9503 0.3115 0.0000
vn 0.8105 -0.5857 0.0000
vn 0.5899 -0.8075 0.0000
vn -0.3066 -0.9519 0.0000
vn -0.5857 -0.8105 0.0000
vn -0.9519 0.3066 0.0000
vn -0.8105 0.5857 0.0000
vn -0.5899 0.8075 0.0000
vn 0.0003 -0.0002 -1.0000
vn 0.0002 -0.0003 -1.0000
vn 0.0003 0.0002 -1.0000
vn 0.0003 0.0001 -1.0000
vn -0.0001 0.0004 -1.0000
vn -0.0000 0.0004 -1.0000
vn -0.0004 -0.0000 -1.0000
vn -0.0004 0.0001 -1.0000
vn -0.0001 -0.0003 -1.0000
vn -0.0002 -0.0003 -1.0000
vn 0.0001 -0.0003 -1.0000
vn 0.0000 -0.0004 -1.0000
vn -0.0003 -0.0002 -1.0000
vn -0.0004 -0.0001 -1.0000
vn -0.0003 0.0002 -1.0000
vn -0.0002 0.0003 -1.0000
vn 0.0001 0.0004 -1.0000
vn 0.0002 0.0003 -1.0000
vn 0.0004 0.0000 -1.0000
vn 0.0003 -0.0001 -1.0000
vn -0.0002 0.0000 -1.0000
vn -0.0002 -0.0001 -1.0000
vn -0.0002 0.0001 -1.0000
vn -0.0001 0.0002 -1.0000
vn -0.0000 0.0002 -1.0000
vn 0.0001 0.0002 -1.0000
vn 0.0002 0.0001 -1.0000
vn 0.0002 0.0000 -1.0000
vn 0.0002 -0.0001 -1.0000
vn 0.0001 -0.0001 -1.0000
vn 0.0001 -0.0002 -1.0000
vn -0.0000 -0.0002 -1.0000
vn -0.0001 -0.0002 -1.0000
vn -0.0001 -0.0001 -1.0000
vn 0.9464 -0.3230 -0.0000
vn 0.0055 -1.0000 0.0000
vn -0.9538 -0.3005 0.0000
vn -0.5855 0.8107 0.0000
vn 0.6007 0.7995 0.0000
usemtl lambert1
s 1
f 24/1/1 25/2/2 2/3/2 20/4/1
f 40/5/3 21/6/4 1/7/4 18/8/3
f 36/9/5 37/10/6 3/11/6 16/12/5
f 32/13/7 33/14/8 4/15/8 14/16/7
f 28/17/9 29/18/10 5/19/10 11/20/9
f 26/21/11 27/22/12 6/23/12 12/24/11
f 30/25/13 31/26/14 7/27/14 13/28/13
f 34/29/15 35/30/16 8/31/16 15/32/15
f 38/33/17 39/34/18 9/35/18 17/36/17
f 22/37/19 23/38/20 10/39/20 19/40/19
f 27/22/12 28/17/9 11/20/9 6/23/12
f 25/2/2 26/21/11 12/24/11 2/3/2
f 29/18/10 30/25/13 13/28/13 5/19/10
f 31/26/14 32/13/7 14/16/7 7/27/14
f 33/14/8 34/29/15 15/32/15 4/15/8
f 35/30/16 36/9/5 16/12/5 8/31/16
f 37/10/6 38/33/17 17/36/17 3/11/6
f 39/34/18 40/5/3 18/8/3 9/35/18
f 21/6/4 22/37/19 19/40/19 1/7/4
f 23/38/20 24/1/1 20/4/1 10/39/20
f 42/41/21 41/42/21 43/43/22 44/44/22
f 46/45/23 45/46/23 41/42/21 42/41/21
f 48/47/23 47/48/23 45/46/23 46/45/23
f 50/49/24 49/50/24 47/48/23 48/47/23
f 52/51/25 51/52/25 49/50/24 50/49/24
f 54/53/25 53/54/25 51/52/25 52/51/25
f 56/55/25 55/56/25 53/54/25 54/53/25
f 57/57/26 58/58/26 55/56/25 56/55/25
f 60/59/27 59/60/27 58/58/26 57/57/26
f 62/61/27 61/62/27 59/60/27 60/59/27
f 64/63/28 63/64/28 61/62/27 62/61/27
f 65/65/29 66/66/29 63/64/28 64/63/28
f 68/67/30 67/68/29 66/66/29 65/65/29
f 70/69/31 69/70/31 67/68/29 68/67/30
f 72/71/31 71/72/31 69/70/31 70/69/31
f 73/73/32 74/74/32 71/72/31 72/71/31
f 76/75/33 75/76/33 74/74/32 73/73/32
f 78/77/33 77/78/33 75/76/33 76/75/33
f 80/79/34 79/80/22 77/78/33 78/77/33
f 44/44/22 43/43/22 79/80/22 80/79/34
f 22/81/35 21/82/36 43/83/36 41/84/35
f 23/85/37 22/81/35 41/84/35 45/86/37
f 24/87/38 23/85/37 45/86/37 47/88/38
f 25/89/39 24/87/38 47/88/38 49/90/39
f 26/91/40 25/89/39 49/90/39 51/92/40
f 27/93/41 26/91/40 51/92/40 53/94/41
f 28/95/42 27/93/41 53/94/41 55/96/42
f 29/97/43 28/95/42 55/96/42 58/98/43
f 30/99/44 29/97/43 58/98/43 59/100/44
f 31/101/45 30/99/44 59/100/44 61/102/45
f 32/103/46 31/101/45 61/102/45 63/104/46
f 33/105/47 32/103/46 63/104/46 66/106/47
f 34/107/48 33/105/47 66/106/47 67/108/48
f 35/109/49 34/107/48 67/108/48 69/110/49
f 36/111/50 35/109/49 69/110/49 71/112/50
f 37/113/51 36/111/50 71/112/50 74/114/51
f 38/115/52 37/113/51 74/114/51 75/116/52
f 39/117/53 38/118/52 75/119/52 77/120/53
f 40/121/54 39/117/53 77/120/53 79/122/54
f 21/82/36 40/121/54 79/122/54 43/83/36
f 1/123/55 19/124/56 99/125/56 81/126/55
f 18/127/57 1/123/55 81/126/55 98/128/57
f 16/129/58 3/130/59 83/131/59 96/132/58
f 14/133/60 4/134/61 84/135/61 94/136/60
f 11/137/62 5/138/63 85/139/63 91/140/62
f 12/141/64 6/142/65 86/143/65 92/144/64
f 13/145/66 7/146/67 87/147/67 93/148/66
f 15/149/68 8/150/69 88/151/69 95/152/68
f 17/153/70 9/154/71 89/155/71 97/156/70
f 10/157/72 20/158/73 100/159/73 90/160/72
f 6/142/65 11/137/62 91/140/62 86/143/65
f 2/161/74 12/141/64 92/144/64 82/162/74
f 5/138/63 13/145/66 93/148/66 85/139/63
f 7/146/67 14/133/60 94/136/60 87/147/67
f 4/134/61 15/149/68 95/152/68 84/135/61
f 8/150/69 16/129/58 96/132/58 88/151/69
f 3/163/59 17/153/70 97/156/70 83/164/59
f 9/154/71 18/127/57 98/128/57 89/155/71
f 19/124/56 10/157/72 90/160/72 99/125/56
f 20/158/73 2/161/74 82/162/74 100/159/73
f 104/165/75 100/166/75 82/167/76 105/168/76
f 120/169/77 98/170/77 81/171/78 101/172/78
f 116/173/79 96/174/79 83/175/80 117/176/80
f 112/177/81 94/178/81 84/179/82 113/180/82
f 108/181/83 91/182/83 85/183/84 109/184/84
f 106/185/85 92/186/85 86/187/86 107/188/86
f 110/189/87 93/190/87 87/191/88 111/192/88
f 114/193/89 95/194/89 88/195/90 115/196/90
f 118/197/91 97/198/91 89/199/92 119/200/92
f 102/201/93 99/202/93 90/203/94 103/204/94
f 107/188/86 86/187/86 91/182/83 108/181/83
f 105/168/76 82/167/76 92/186/85 106/185/85
f 109/184/84 85/183/84 93/190/87 110/189/87
f 111/192/88 87/191/88 94/178/81 112/177/81
f 113/180/82 84/179/82 95/194/89 114/193/89
f 115/196/90 88/195/90 96/174/79 116/173/79
f 117/176/80 83/175/80 97/198/91 118/197/91
f 119/200/92 89/199/92 98/170/77 120/169/77
f 101/172/78 81/171/78 99/202/93 102/201/93
f 103/204/94 90/203/94 100/166/75 104/165/75
f 122/205/95 124/206/96 123/207/96 121/208/95
f 126/209/97 122/205/95 121/208/95 125/210/97
f 128/211/97 126/209/97 125/210/97 127/212/97
f 130/213/98 128/211/97 127/212/97 129/214/98
f 132/215/99 130/213/98 129/214/98 131/216/99
f 134/217/99 132/215/99 131/216/99 133/218/99
f 136/219/99 134/217/99 133/218/99 135/220/99
f 137/221/100 136/219/99 135/220/99 138/222/100
f 140/223/101 137/221/100 138/222/100 139/224/101
f 142/225/101 140/223/101 139/224/101 141/226/101
f 144/227/102 142/225/101 141/226/101 143/228/102
f 145/229/103 144/227/102 143/228/102 146/230/103
f 148/231/104 145/229/103 146/230/103 147/232/103
f 150/233/105 148/231/104 147/232/103 149/234/105
f 152/235/105 150/233/105 149/234/105 151/236/105
f 153/237/106 152/235/105 151/236/105 154/238/106
f 156/239/107 153/237/106 154/238/106 155/240/107
f 158/241/107 156/239/107 155/240/107 157/242/107
f 160/243/108 158/241/107 157/242/107 159/244/96
f 124/206/96 160/243/108 159/244/96 123/207/96
f 102/245/35 121/246/35 123/247/36 101/248/36
f 103/249/37 125/250/37 121/246/35 102/245/35
f 104/251/38 127/252/38 125/250/37 103/249/37
f 105/253/39 129/254/39 127/252/38 104/251/38
f 106/255/40 131/256/40 129/254/39 105/253/39
f 107/257/41 133/258/41 131/256/40 106/255/40
f 108/259/42 135/260/42 133/258/41 107/257/41
f 109/261/43 138/262/43 135/260/42 108/259/42
f 110/263/44 139/264/44 138/262/43 109/261/43
f 111/265/45 141/266/45 139/264/44 110/263/44
f 112/267/46 143/268/46 141/266/45 111/265/45
f 113/269/47 146/270/47 143/268/46 112/267/46
f 114/271/48 147/272/48 146/270/47 113/269/47
f 115/273/49 149/274/49 147/272/48 114/271/48
f 116/275/50 151/276/50 149/274/49 115/273/49
f 117/277/51 154/278/51 151/276/50 116/275/50
f 118/279/52 155/280/52 154/281/51 117/282/51
f 119/283/53 157/284/53 155/280/52 118/279/52
f 120/285/54 159/286/54 157/284/53 119/283/53
f 101/248/36 123/247/36 159/286/54 120/285/54
f 44/287/109 124/288/109 122/289/109 42/290/109
f 42/290/109 122/289/109 126/291/109 46/292/109
f 46/292/109 126/291/109 128/293/109 48/294/109
f 48/294/109 128/293/109 130/295/109 50/296/109
f 50/296/110 130/295/110 132/297/110 52/298/110
f 52/298/110 132/297/110 134/299/110 54/300/110
f 54/300/110 134/299/110 136/301/110 56/302/110
f 56/302/110 136/301/110 137/303/110 57/304/110
f 57/304/111 137/303/111 140/305/111 60/306/111
f 60/306/111 140/305/111 142/307/111 62/308/111
f 62/308/111 142/307/111 144/309/111 64/310/111
f 64/310/111 144/309/111 145/311/111 65/312/111
f 65/312/112 145/311/112 148/313/112 68/314/112
f 68/314/112 148/313/112 150/315/112 70/316/112
f 70/316/112 150/315/112 152/317/112 72/318/112
f 72/318/112 152/317/112 153/319/112 73/320/112
f 73/321/113 153/322/113 156/323/113 76/324/113
f 76/324/113 156/323/113 158/325/113 78/326/113
f 78/326/113 158/325/113 160/327/113 80/328/113
f 80/328/113 160/327/113 124/288/113 44/287/113
