# This file uses centimeters as units for non-parametric coordinates.

mtllib livro.mtl
g default
v 0.246370 0.094817 1.018289
v 0.246370 -0.092337 1.018289
v 1.166741 -0.092336 1.018289
v 1.166741 0.337198 1.018289
v 0.246370 0.094818 -1.059489
v 1.166741 0.337199 -1.059489
v 1.166741 -0.092335 -1.059489
v 0.246370 -0.092336 -1.059489
v 0.246370 -0.204007 1.018289
v 0.246370 -0.204006 -1.059489
v 1.166741 -0.204006 -1.059489
v 1.166741 -0.204007 1.018289
v 1.780321 -0.092336 1.018289
v 1.780321 -0.092335 -1.059489
v 1.780321 0.370664 -1.059489
v 1.780321 0.370664 1.018289
v -1.287580 -0.092335 -1.059489
v -1.287580 -0.092336 1.018289
v -1.287580 0.370664 1.018289
v -1.287580 0.370664 -1.059489
v -0.674000 -0.204007 1.018289
v -0.674000 -0.204006 -1.059489
v -0.674000 -0.092335 -1.059489
v -0.674000 0.337199 -1.059489
v -0.674000 0.337198 1.018289
v -0.674000 -0.092336 1.018289
v -1.287580 -0.204006 -1.059489
v -1.287580 -0.204007 1.018289
v 1.780321 -0.204006 -1.059489
v 1.780321 -0.204007 1.018289
v -1.390692 -0.207760 1.088122
v -0.735866 -0.207760 1.088122
v -0.735866 -0.088582 1.088122
v -1.390692 -0.088582 1.088122
v 0.246370 -0.088584 1.088122
v 0.246370 -0.207760 1.088122
v 1.228607 -0.088582 1.088122
v 1.228607 -0.207760 1.088122
v 1.883433 -0.088582 1.088122
v 1.883433 -0.207760 1.088122
v 1.883433 -0.207759 -1.129322
v 1.883433 -0.088581 -1.129322
v 1.228607 -0.207759 -1.129322
v 1.228607 -0.088581 -1.129322
v 0.246370 -0.207759 -1.129322
v 0.246370 -0.088584 -1.129322
v -0.735866 -0.207759 -1.129322
v -0.735866 -0.088581 -1.129322
v -1.390692 -0.088581 -1.129322
v -1.390692 -0.207759 -1.129322
vt 0.363388 0.298146
vt 0.363388 0.500000
vt 0.318408 0.500000
vt 0.318408 0.298146
vt 0.363388 0.798045
vt 0.363389 0.999899
vt 0.318409 0.999899
vt 0.318408 0.798045
vt 0.403768 0.000101
vt 0.403768 0.215525
vt 0.392189 0.215525
vt 0.392190 0.000101
vt 0.215524 0.560465
vt 0.000101 0.560465
vt 0.000101 0.548887
vt 0.215524 0.548887
vt 0.010142 0.208749
vt 0.069746 0.208766
vt 0.063734 0.215559
vt 0.000121 0.215539
vt 0.363591 0.069727
vt 0.363591 0.010118
vt 0.370385 0.000101
vt 0.370385 0.063717
vt 0.363591 0.159141
vt 0.370385 0.159141
vt 0.159162 0.208771
vt 0.159162 0.215565
vt 0.363591 0.248554
vt 0.370385 0.254564
vt 0.248577 0.208759
vt 0.254589 0.215552
vt 0.363591 0.308163
vt 0.370385 0.318180
vt 0.308182 0.208736
vt 0.318205 0.215526
vt 0.308183 0.006922
vt 0.318205 0.000132
vt 0.382166 0.208741
vt 0.382166 0.006885
vt 0.248554 0.520289
vt 0.308163 0.520289
vt 0.318180 0.527083
vt 0.254564 0.527083
vt 0.248572 0.006902
vt 0.254585 0.000108
vt 0.159140 0.520289
vt 0.159140 0.527083
vt 0.159154 0.006896
vt 0.159154 0.000101
vt 0.069727 0.520289
vt 0.063717 0.527083
vt 0.069738 0.006909
vt 0.063724 0.000115
vt 0.010118 0.520289
vt 0.000101 0.527083
vt 0.010125 0.006934
vt 0.000101 0.000145
vt 0.006886 0.538863
vt 0.208740 0.538863
vt 0.345206 0.149124
vt 0.363388 0.149123
vt 0.363388 0.238537
vt 0.321659 0.238537
vt 0.201956 0.367927
vt 0.000101 0.367927
vt 0.000101 0.275465
vt 0.201956 0.275465
vt 0.363388 0.559609
vt 0.363388 0.649022
vt 0.345206 0.649022
vt 0.321659 0.559609
vt 0.363388 0.738436
vt 0.321659 0.738436
vt 0.201956 0.460389
vt 0.000101 0.460389
vt 0.321660 0.059710
vt 0.363388 0.059710
vt 0.000101 0.520086
vt 0.201956 0.520086
vt 0.363389 0.000101
vt 0.318409 0.000101
vt 0.000101 0.215768
vt 0.201956 0.215768
vt 0.381963 0.000101
vt 0.381963 0.063717
vt 0.381963 0.159141
vt 0.381963 0.254564
vt 0.381963 0.318180
vt 0.254564 0.538661
vt 0.318180 0.538661
vt 0.159141 0.538661
vt 0.063717 0.538661
vt 0.000101 0.538661
vn 1.000000 0.000000 0.000000
vn 1.000000 0.000000 0.000000
vn 1.000000 0.000000 0.000000
vn 1.000000 0.000000 0.000000
vn -1.000000 0.000000 0.000000
vn -1.000000 0.000000 0.000000
vn -1.000000 0.000000 0.000000
vn -1.000000 0.000000 0.000000
vn 1.000000 0.000000 0.000000
vn 1.000000 0.000000 0.000000
vn 1.000000 0.000000 0.000000
vn 1.000000 0.000000 0.000000
vn -1.000000 0.000000 0.000000
vn -1.000000 0.000000 0.000000
vn -1.000000 0.000000 0.000000
vn -1.000000 0.000000 0.000000
vn 0.000000 -0.998557 -0.053698
vn 0.000000 -0.998557 -0.053698
vn 0.000000 -0.998557 -0.053698
vn 0.000000 -0.998557 -0.053698
vn 0.000000 0.998557 -0.053698
vn 0.000000 0.998557 -0.053698
vn 0.000000 0.998557 -0.053698
vn 0.000000 0.998557 -0.053698
vn 0.000000 0.998557 -0.053698
vn 0.000000 0.998557 -0.053698
vn 0.000000 0.998557 -0.053698
vn 0.000000 0.998557 -0.053698
vn 0.000000 -0.998557 -0.053698
vn 0.000000 -0.998557 -0.053698
vn 0.000000 -0.998557 -0.053698
vn 0.000000 -0.998557 -0.053698
vn 0.000000 0.998557 -0.053698
vn 0.000000 0.998557 -0.053698
vn 0.000000 0.998557 -0.053698
vn 0.000000 0.998557 -0.053698
vn 0.000000 -0.998557 -0.053698
vn 0.000000 -0.998557 -0.053698
vn 0.000000 -0.998557 -0.053698
vn 0.000000 -0.998557 -0.053698
vn 0.000000 0.998557 -0.053698
vn 0.000000 0.998557 -0.053698
vn 0.000000 0.998557 -0.053698
vn 0.000000 0.998557 -0.053698
vn 0.000000 -0.998557 -0.053698
vn 0.000000 -0.998557 -0.053698
vn 0.000000 -0.998557 -0.053698
vn 0.000000 -0.998557 -0.053698
vn -0.036401 -0.999337 0.000000
vn -0.036401 -0.999337 0.000000
vn -0.036401 -0.999337 0.000000
vn -0.036401 -0.999337 0.000000
vn -0.036401 0.999337 0.000000
vn -0.036401 0.999337 0.000000
vn -0.036401 0.999337 0.000000
vn -0.036401 0.999337 0.000000
vn 0.000000 0.998557 0.053698
vn 0.000000 0.998557 0.053698
vn 0.000000 0.998557 0.053698
vn 0.000000 0.998557 0.053698
vn 0.000000 -0.998557 0.053698
vn 0.000000 -0.998557 0.053698
vn 0.000000 -0.998557 0.053698
vn 0.000000 -0.998557 0.053698
vn 0.000000 0.998557 0.053698
vn 0.000000 0.998557 0.053698
vn 0.000000 0.998557 0.053698
vn 0.000000 0.998557 0.053698
vn 0.000000 -0.998557 0.053698
vn 0.000000 -0.998557 0.053698
vn 0.000000 -0.998557 0.053698
vn 0.000000 -0.998557 0.053698
vn 0.000000 0.998557 0.053698
vn 0.000000 0.998557 0.053698
vn 0.000000 0.998557 0.053698
vn 0.000000 0.998557 0.053698
vn 0.000000 -0.998557 0.053698
vn 0.000000 -0.998557 0.053698
vn 0.000000 -0.998557 0.053698
vn 0.000000 -0.998557 0.053698
vn 0.000000 0.998557 0.053698
vn 0.000000 0.998557 0.053698
vn 0.000000 0.998557 0.053698
vn 0.000000 0.998557 0.053698
vn 0.000000 -0.998557 0.053698
vn 0.000000 -0.998557 0.053698
vn 0.000000 -0.998557 0.053698
vn 0.000000 -0.998557 0.053698
vn 0.036401 -0.999337 0.000000
vn 0.036401 -0.999337 0.000000
vn 0.036401 -0.999337 0.000000
vn 0.036401 -0.999337 0.000000
vn 0.036401 0.999337 0.000000
vn 0.036401 0.999337 0.000000
vn 0.036401 0.999337 0.000000
vn 0.036401 0.999337 0.000000
vn 0.000000 0.000000 1.000000
vn 0.000000 0.000000 1.000000
vn 0.000000 0.000000 1.000000
vn 0.000000 0.000000 1.000000
vn 0.000000 1.000000 0.000000
vn 0.000000 1.000000 0.000000
vn -0.177002 0.984211 0.000000
vn -0.177002 0.984211 0.000000
vn -0.000000 0.000000 -1.000000
vn -0.000000 0.000000 -1.000000
vn -0.000000 0.000000 -1.000000
vn -0.000000 0.000000 -1.000000
vn 0.000000 -1.000000 0.000000
vn 0.000000 -1.000000 0.000000
vn 0.000000 -1.000000 0.000000
vn 0.000000 -1.000000 0.000000
vn 0.000000 -1.000000 0.000000
vn 0.000000 -1.000000 0.000000
vn 0.000000 -1.000000 0.000000
vn 0.000000 -1.000000 0.000000
vn -0.000000 0.000000 -1.000000
vn -0.000000 0.000000 -1.000000
vn -0.000000 0.000000 -1.000000
vn -0.000000 0.000000 -1.000000
vn 0.177002 0.984211 0.000000
vn 0.177002 0.984211 0.000000
vn 0.000000 1.000000 0.000000
vn 0.000000 1.000000 0.000000
vn 0.000000 0.000000 1.000000
vn 0.000000 0.000000 1.000000
vn 0.000000 0.000000 1.000000
vn 0.000000 0.000000 1.000000
vn 0.000000 -1.000000 0.000000
vn 0.000000 -1.000000 0.000000
vn 0.000000 -1.000000 0.000000
vn 0.000000 -1.000000 0.000000
vn -0.000000 0.000000 -1.000000
vn -0.000000 0.000000 -1.000000
vn -0.000000 0.000000 -1.000000
vn -0.000000 0.000000 -1.000000
vn 0.054501 0.998514 0.000000
vn 0.177002 0.984211 0.000000
vn 0.177002 0.984211 0.000000
vn 0.054501 0.998514 0.000000
vn 0.000000 0.000000 1.000000
vn 0.000000 0.000000 1.000000
vn 0.000000 0.000000 1.000000
vn 0.000000 0.000000 1.000000
vn 0.000000 0.000000 1.000000
vn 0.000000 0.000000 1.000000
vn 0.000000 0.000000 1.000000
vn 0.000000 0.000000 1.000000
vn -0.177002 0.984211 0.000000
vn -0.177002 0.984211 0.000000
vn -0.054501 0.998514 0.000000
vn -0.054501 0.998514 0.000000
vn -0.000000 0.000000 -1.000000
vn -0.000000 0.000000 -1.000000
vn -0.000000 0.000000 -1.000000
vn -0.000000 0.000000 -1.000000
vn 0.000000 -1.000000 0.000000
vn 0.000000 -1.000000 0.000000
vn 0.000000 -1.000000 0.000000
vn 0.000000 -1.000000 0.000000
vn 0.000000 0.000000 1.000000
vn 0.000000 0.000000 1.000000
vn 0.000000 0.000000 1.000000
vn 0.000000 0.000000 1.000000
vn 0.000000 0.000000 1.000000
vn 0.000000 0.000000 1.000000
vn 0.000000 0.000000 1.000000
vn 0.000000 0.000000 1.000000
vn 0.000000 0.000000 1.000000
vn 0.000000 0.000000 1.000000
vn 0.000000 0.000000 1.000000
vn 0.000000 0.000000 1.000000
vn 0.000000 0.000000 1.000000
vn 0.000000 0.000000 1.000000
vn 0.000000 0.000000 1.000000
vn 0.000000 0.000000 1.000000
vn -0.000000 0.000000 -1.000000
vn -0.000000 0.000000 -1.000000
vn -0.000000 0.000000 -1.000000
vn -0.000000 0.000000 -1.000000
vn -0.000000 0.000000 -1.000000
vn -0.000000 0.000000 -1.000000
vn -0.000000 0.000000 -1.000000
vn -0.000000 0.000000 -1.000000
vn -0.000000 0.000000 -1.000000
vn -0.000000 0.000000 -1.000000
vn -0.000000 0.000000 -1.000000
vn -0.000000 0.000000 -1.000000
vn -0.000000 0.000000 -1.000000
vn -0.000000 0.000000 -1.000000
vn -0.000000 0.000000 -1.000000
vn -0.000000 0.000000 -1.000000
s off
g livro
usemtl initialShadingGroup
f 13/1/1 14/2/2 15/3/3 16/4/4
f 17/5/5 18/6/6 19/7/7 20/8/8
f 40/9/9 41/10/10 42/11/11 39/12/12
f 50/13/13 31/14/14 34/15/15 49/16/16
f 28/17/17 21/18/18 32/19/19 31/20/20
f 26/21/21 18/22/22 34/23/23 33/24/24
f 2/25/25 26/21/26 33/24/27 35/26/28
f 21/18/29 9/27/30 36/28/31 32/19/32
f 3/29/33 2/25/34 35/26/35 37/30/36
f 9/27/37 12/31/38 38/32/39 36/28/40
f 13/33/41 3/29/42 37/30/43 39/34/44
f 12/31/45 30/35/46 40/36/47 38/32/48
f 30/35/49 29/37/50 41/38/51 40/36/52
f 14/39/53 13/40/54 39/12/55 42/11/56
f 7/41/57 14/42/58 42/43/59 44/44/60
f 29/37/61 11/45/62 43/46/63 41/38/64
f 8/47/65 7/41/66 44/44/67 46/48/68
f 11/45/69 10/49/70 45/50/71 43/46/72
f 23/51/73 8/47/74 46/48/75 48/52/76
f 10/49/77 22/53/78 47/54/79 45/50/80
f 17/55/81 23/51/82 48/52/83 49/56/84
f 22/53/85 27/57/86 50/58/87 47/54/88
f 27/57/89 28/17/90 31/20/91 50/58/92
f 18/59/93 17/60/94 49/16/95 34/15/96
f 1/61/97 2/62/98 3/63/99 4/64/100
f 5/65/101 1/66/102 4/67/103 6/68/104
f 7/69/105 8/70/106 5/71/107 6/72/108
f 9/27/109 10/49/110 11/45/111 12/31/112
f 21/18/113 22/53/114 10/49/115 9/27/116
f 8/70/117 23/73/118 24/74/119 5/71/120
f 24/75/121 25/76/122 1/66/123 5/65/124
f 25/77/125 26/78/126 2/62/127 1/61/128
f 27/57/129 22/53/130 21/18/131 28/17/132
f 20/8/133 24/74/134 23/73/135 17/5/136
f 19/79/137 25/76/138 24/75/139 20/80/140
f 18/81/141 26/78/142 25/77/143 19/82/144
f 4/64/145 3/63/146 13/1/147 16/4/148
f 6/68/149 4/67/150 16/83/151 15/84/152
f 14/2/153 7/69/154 6/72/155 15/3/156
f 12/31/157 11/45/158 29/37/159 30/35/160
f 31/85/161 32/86/162 33/24/163 34/23/164
f 35/26/165 33/24/166 32/86/167 36/87/168
f 37/30/169 35/26/170 36/87/171 38/88/172
f 39/34/173 37/30/174 38/88/175 40/89/176
f 43/90/177 44/44/178 42/43/179 41/91/180
f 45/92/181 46/48/182 44/44/183 43/90/184
f 47/93/185 48/52/186 46/48/187 45/92/188
f 49/56/189 48/52/190 47/93/191 50/94/192
