# Blender v2.82 (sub 7) OBJ File: ''
# www.blender.org
mtllib pergaminho 2.mtl
o pergaminho_2
v 0.252984 -0.243528 -0.771828
v 0.000098 -0.348269 -0.773094
v 0.000098 -0.488757 -2.207145
v 0.364582 -0.337794 -2.205318
v -0.252788 -0.243528 -0.771828
v -0.364386 -0.337794 -2.205318
v -0.357537 0.009339 -0.768768
v -0.515360 0.026663 -2.200911
v -0.252788 0.262207 -0.765709
v -0.364386 0.391120 -2.196502
v 0.000098 0.366948 -0.764442
v 0.000098 0.542083 -2.194675
v 0.252984 0.262207 -0.765709
v 0.364582 0.391120 -2.196502
v 0.357733 0.009339 -0.768768
v 0.515556 0.026663 -2.200911
v 0.000098 -0.683314 1.738280
v 0.468399 -0.489352 1.740627
v 0.000098 -0.019597 1.623252
v -0.468203 -0.489352 1.740627
v -0.662180 -0.021085 1.746292
v -0.468203 0.447182 1.751956
v 0.000098 0.641145 1.754302
v 0.468399 0.447182 1.751956
v 0.662376 -0.021085 1.746292
v 0.000098 0.025670 -2.118863
v 0.000098 -0.401630 0.223054
v 0.282192 -0.284791 0.224466
v -0.281997 -0.284791 0.224466
v -0.398844 -0.002718 0.227879
v -0.281997 0.279356 0.231291
v 0.000098 0.396195 0.232703
v 0.282192 0.279356 0.231291
v 0.399040 -0.002718 0.227879
vt 0.908251 0.980090
vt 0.811040 0.980090
vt 0.859645 0.862746
vt 0.976990 0.911351
vt 0.976990 0.814140
vt 0.908251 0.745402
vt 0.811040 0.745402
vt 0.742301 0.814140
vt 0.742301 0.911352
vt 0.908251 0.745402
vt 0.976990 0.814140
vt 0.859645 0.862746
vt 0.976990 0.911352
vt 0.908251 0.980090
vt 0.811040 0.980090
vt 0.742301 0.911352
vt 0.742301 0.814140
vt 0.811040 0.745402
vt 0.591746 0.445533
vt 0.591275 0.383705
vt 0.899560 0.383672
vt 0.897289 0.459993
vt 0.589974 0.321919
vt 0.898061 0.306849
vt 0.588126 0.260993
vt 0.892473 0.229588
vt 0.585520 0.201873
vt 0.882180 0.152065
vt 0.581899 0.145223
vt 0.865837 0.073570
vt 0.589128 0.622234
vt 0.591348 0.565168
vt 0.881332 0.611070
vt 0.866778 0.685958
vt 0.591969 0.506335
vt 0.891297 0.535767
vt 0.043465 0.481388
vt 0.039915 0.384937
vt 0.363122 0.386363
vt 0.365758 0.453750
vt 0.045090 0.289362
vt 0.363883 0.318845
vt 0.058852 0.195139
vt 0.368246 0.252517
vt 0.081483 0.102756
vt 0.376320 0.188557
vt 0.113716 0.012812
vt 0.388391 0.128311
vt 0.114397 0.769116
vt 0.079393 0.674091
vt 0.382328 0.584291
vt 0.395742 0.644021
vt 0.056317 0.578083
vt 0.372176 0.520145
vn -0.0000 0.1708 0.9853
vn -0.1292 0.1173 0.9847
vn 0.0000 -0.0121 0.9999
vn 0.1292 0.1173 0.9847
vn 0.1827 -0.0119 0.9831
vn 0.1292 -0.1410 0.9815
vn 0.0000 -0.1946 0.9809
vn 0.1292 -0.1411 0.9815
vn -0.1292 -0.1411 0.9815
vn -0.1827 -0.0119 0.9831
vn -0.1292 -0.1410 0.9815
vn -0.1111 0.1231 -0.9861
vn -0.0000 0.1691 -0.9856
vn -0.0000 0.0121 -0.9999
vn 0.1111 0.1231 -0.9861
vn 0.1112 0.1231 -0.9861
vn 0.1572 0.0120 -0.9875
vn 0.1572 0.0119 -0.9875
vn 0.1112 -0.0992 -0.9888
vn 0.1111 -0.0992 -0.9888
vn -0.0000 -0.1452 -0.9894
vn -0.1111 -0.0992 -0.9888
vn -0.1112 -0.0992 -0.9888
vn -0.1572 0.0119 -0.9875
vn -0.1572 0.0120 -0.9875
vn -0.1112 0.1231 -0.9861
vn 0.3822 -0.9232 0.0396
vn 0.3807 -0.9203 0.0901
vn -0.3822 -0.9232 0.0396
vn -0.3807 -0.9203 0.0901
vn -0.9227 -0.3828 0.0461
vn -0.9191 -0.3819 0.0967
vn -0.9227 0.3815 0.0554
vn -0.9191 0.3795 0.1059
vn -0.3822 0.9220 0.0619
vn -0.3807 0.9178 0.1124
vn 0.3822 0.9220 0.0619
vn 0.3807 0.9178 0.1124
vn 0.9227 0.3815 0.0553
vn 0.9191 0.3795 0.1059
vn 0.3778 -0.9103 -0.1692
vn 0.3779 -0.9103 -0.1692
vn 0.3797 -0.9151 -0.1356
vn -0.3778 -0.9103 -0.1692
vn -0.3797 -0.9151 -0.1356
vn -0.9122 -0.3759 -0.1628
vn -0.9167 -0.3782 -0.1291
vn -0.9123 0.3797 -0.1536
vn -0.9167 0.3812 -0.1200
vn -0.3779 0.9141 -0.1472
vn -0.3797 0.9181 -0.1135
vn 0.3778 0.9141 -0.1472
vn 0.3797 0.9181 -0.1135
vn 0.9122 0.3798 -0.1536
vn 0.9167 0.3812 -0.1200
vn 0.9227 0.3816 0.0554
usemtl initialShadingGroup
s off
f 17/1/1 18/2/2 19/3/3
f 20/4/4 17/1/1 19/3/3
f 21/5/5 20/4/4 19/3/3
f 22/6/6 21/5/5 19/3/3
f 23/7/7 22/6/8 19/3/3
f 24/8/9 23/7/7 19/3/3
f 25/9/10 24/8/11 19/3/3
f 18/2/2 25/9/10 19/3/3
f 4/10/12 3/11/13 26/12/14
f 3/11/13 6/13/15 26/12/14
f 6/13/16 8/14/17 26/12/14
f 8/14/18 10/15/19 26/12/14
f 10/15/20 12/16/21 26/12/14
f 12/16/21 14/17/22 26/12/14
f 14/17/23 16/18/24 26/12/14
f 16/18/25 4/10/26 26/12/14
s 1
f 1/19/27 2/20/27 3/21/28 4/22/28
f 2/20/27 5/23/29 6/24/30 3/21/28
f 5/23/29 7/25/31 8/26/32 6/24/30
f 7/25/31 9/27/33 10/28/34 8/26/32
f 9/27/33 11/29/35 12/30/36 10/28/34
f 11/31/35 13/32/37 14/33/38 12/34/36
f 13/32/37 15/35/39 16/36/40 14/33/38
f 15/35/39 1/19/27 4/22/28 16/36/40
f 18/37/41 17/38/42 27/39/43 28/40/43
f 17/38/42 20/41/44 29/42/45 27/39/43
f 20/41/44 21/43/46 30/44/47 29/42/45
f 21/43/46 22/45/48 31/46/49 30/44/47
f 22/45/48 23/47/50 32/48/51 31/46/49
f 23/49/50 24/50/52 33/51/53 32/52/51
f 24/50/52 25/53/54 34/54/55 33/51/53
f 25/53/54 18/37/41 28/40/43 34/54/55
f 28/40/43 27/39/43 2/20/27 1/19/27
f 27/39/43 29/42/45 5/23/29 2/20/27
f 29/42/45 30/44/47 7/25/31 5/23/29
f 30/44/47 31/46/49 9/27/33 7/25/31
f 31/46/49 32/48/51 11/29/35 9/27/33
f 32/52/51 33/51/53 13/32/37 11/31/35
f 33/51/53 34/54/55 15/35/56 13/32/37
f 34/54/55 28/40/43 1/19/27 15/35/56
