# Blender v2.82 (sub 7) OBJ File: ''
# www.blender.org
mtllib pergaminho 1.mtl
o pergaminho_1
v -1.249177 1.403323 -0.318631
v -1.423047 1.395923 -0.326361
v -1.422426 1.728283 -0.464031
v -1.248577 1.727963 -0.453101
v -1.421816 2.060653 -0.326361
v -1.247966 2.052613 -0.318631
v -1.421556 2.198323 0.006009
v -1.247726 2.187083 0.006009
v -1.421816 2.060653 0.338379
v -1.247966 2.052613 0.330659
v -1.422426 1.728283 0.476049
v -1.248577 1.727963 0.465129
v -1.423047 1.395923 0.338379
v -1.249177 1.403323 0.330659
v -1.423296 1.258253 0.006008
v -1.249416 1.268853 0.006008
v 1.441003 1.252953 0.006008
v 1.267164 1.264203 0.006008
v 1.267414 1.398673 -0.318631
v 1.441254 1.390623 -0.326361
v 1.441254 1.390623 0.338379
v 1.267414 1.398673 0.330659
v 1.441874 1.722993 0.476049
v 1.268013 1.723313 0.465129
v 1.442483 2.055363 0.338379
v 1.268613 2.047963 0.330659
v 1.442743 2.193033 0.006009
v 1.268864 2.182433 0.006009
v 1.442483 2.055363 -0.326361
v 1.268613 2.047963 -0.318631
v 1.441874 1.722993 -0.464031
v 1.268013 1.723313 -0.453101
v -1.453046 1.451253 -0.271081
v -1.452537 1.728343 -0.385861
v -1.233586 1.727943 -0.376761
v -1.234087 1.457283 -0.264651
v -1.452026 2.005443 -0.271081
v -1.233087 1.998593 -0.264651
v -1.451817 2.120213 0.006008
v -1.232876 2.110703 0.006008
v -1.452026 2.005443 0.283109
v -1.233087 1.998593 0.276669
v -1.452537 1.728343 0.397879
v -1.233586 1.727943 0.388779
v -1.453046 1.451253 0.283109
v -1.189537 1.457203 0.360449
v -1.453267 1.336473 0.006008
v -1.150227 1.345013 0.006008
v 1.168864 1.340733 0.006008
v 1.252523 1.452683 -0.264651
v 1.471464 1.445843 -0.271081
v 1.471253 1.331063 0.006008
v 1.208583 1.452763 0.360449
v 1.471464 1.445843 0.283109
v 1.253024 1.723343 0.388779
v 1.471983 1.722943 0.397879
v 1.253523 1.994003 0.276669
v 1.472494 2.000033 0.283109
v 1.253734 2.106113 0.006008
v 1.472703 2.114812 0.006008
v 1.253523 1.994003 -0.264651
v 1.472494 2.000033 -0.271081
v 1.253024 1.723343 -0.376761
v 1.471983 1.722943 -0.385861
v 0.459013 1.460593 -0.258211
v 0.459504 1.724813 -0.367651
v 0.459993 1.989033 -0.258211
v 0.460194 2.098473 0.006008
v 0.459993 1.989033 0.270229
v 0.459504 1.724813 0.379669
v 0.429014 1.460643 0.354009
v 1.178304 -2.053247 -0.174852
v 0.438243 -2.048457 -0.180312
v 0.438504 -1.908337 -0.404311
v 1.178564 -1.909707 -0.404311
v 0.428813 1.351203 0.006008
v -1.405366 1.728253 0.006008
v 1.424814 1.723023 0.006008
v -0.440547 1.462253 -0.258211
v -0.440056 1.726473 -0.367651
v -0.439567 1.990693 -0.258211
v -0.439366 2.100132 0.006008
v -0.439567 1.990693 0.270229
v -0.440056 1.726473 0.379669
v -0.409946 1.462193 0.354009
v -0.400716 -2.046907 -0.180312
v -1.140787 -2.048957 -0.174852
v -1.140526 -1.905417 -0.404311
v -0.400456 -1.906777 -0.404311
v -0.410146 1.352753 0.006008
v 0.435823 -1.060107 -0.171581
v 1.175893 -1.061477 -0.171581
v 1.189064 -1.061497 0.127008
v 0.435823 -1.060107 0.120568
v -1.156366 -1.057167 0.127008
v -1.143197 -1.057187 -0.171581
v -0.403126 -1.058557 -0.171581
v -0.403126 -1.058557 0.120568
v 0.432363 0.170293 0.148499
v -0.406597 0.171843 0.148499
v -1.172997 0.173263 0.154928
v -1.146657 0.173213 -0.171581
v -0.406597 0.171843 -0.171581
v 0.432363 0.170293 -0.171581
v 1.172433 0.168923 -0.171581
v 1.198773 0.168873 0.154928
vt 0.288429 0.716386
vt 0.246172 0.718031
vt 0.249559 0.636043
vt 0.287269 0.639104
vt 0.255976 0.567820
vt 0.290812 0.570508
vt 0.302113 0.865717
vt 0.265353 0.872925
vt 0.253182 0.796780
vt 0.292368 0.791535
vt 0.305558 0.431892
vt 0.268192 0.430667
vt 0.266399 0.344498
vt 0.318061 0.345696
vt 0.297742 0.503484
vt 0.261803 0.501667
vt 0.319837 0.954437
vt 0.268227 0.958493
vt 0.386432 0.800254
vt 0.424335 0.798586
vt 0.424166 0.871868
vt 0.386176 0.873054
vt 0.386154 0.344498
vt 0.433964 0.351615
vt 0.416583 0.429472
vt 0.380627 0.426328
vt 0.379051 0.729837
vt 0.416360 0.726199
vt 0.862024 0.317846
vt 0.730677 0.325128
vt 0.726011 0.292503
vt 0.858243 0.283508
vt 0.428072 0.960956
vt 0.376501 0.957733
vt 0.367945 0.657643
vt 0.406666 0.654286
vt 0.406721 0.500825
vt 0.368689 0.498125
vt 0.363180 0.575762
vt 0.405298 0.576969
vt 0.425601 0.502358
vt 0.433647 0.432791
vt 0.367608 0.350720
vt 0.363098 0.424235
vt 0.424237 0.653166
vt 0.426489 0.577243
vt 0.322492 0.862216
vt 0.309896 0.789965
vt 0.367582 0.871797
vt 0.358649 0.947940
vt 0.442308 0.871367
vt 0.445141 0.797561
vt 0.241228 0.566503
vt 0.231930 0.632751
vt 0.450497 0.950531
vt 0.247722 0.353068
vt 0.251222 0.430361
vt 0.306693 0.571663
vt 0.315492 0.505262
vt 0.230072 0.703990
vt 0.324823 0.434247
vt 0.339454 0.496306
vt 0.347488 0.589880
vt 0.222831 0.798914
vt 0.246926 0.874702
vt 0.309558 0.715690
vt 0.305896 0.639473
vt 0.370659 0.800911
vt 0.450497 0.362974
vt 0.349698 0.661605
vt 0.362024 0.731887
vt 0.243864 0.500097
vt 0.339038 0.942148
vt 0.249131 0.951388
vt 0.434980 0.724005
vt 0.339038 0.357431
vt 0.062511 0.030297
vt 0.063582 0.115590
vt 0.032766 0.115918
vt 0.031197 0.030773
vt 0.063999 0.212797
vt 0.063674 0.298033
vt 0.032387 0.297851
vt 0.033208 0.212744
vt 0.187668 0.212151
vt 0.188920 0.297450
vt 0.157578 0.297814
vt 0.156780 0.212424
vt 0.125846 0.212623
vt 0.126261 0.298021
vt 0.094959 0.298092
vt 0.094904 0.212739
vt 0.216766 0.034787
vt 0.215826 0.118369
vt 0.187236 0.115067
vt 0.187718 0.029867
vt 0.356051 0.118536
vt 0.356552 0.208319
vt 0.216257 0.208662
vt 0.002129 0.119596
vt 0.000097 0.040456
vt 0.617721 0.462449
vt 0.568864 0.511306
vt 0.534317 0.427902
vt 0.617721 0.393355
vt 0.568864 0.344498
vt 0.499770 0.344498
vt 0.450913 0.393355
vt 0.450913 0.462449
vt 0.499770 0.511306
vt 0.784945 0.393355
vt 0.784945 0.462450
vt 0.701541 0.427902
vt 0.736088 0.511306
vt 0.666994 0.511307
vt 0.618137 0.462449
vt 0.618137 0.393355
vt 0.666994 0.344498
vt 0.736088 0.344498
vt 0.156425 0.029760
vt 0.156359 0.115098
vt 0.125426 0.115209
vt 0.125116 0.029790
vt 0.093813 0.029995
vt 0.094485 0.115340
vt 0.487984 0.118383
vt 0.488449 0.208355
vt 0.001214 0.288533
vt 0.002496 0.209404
vt 0.628306 0.208807
vt 0.627764 0.288136
vt 0.598968 0.288064
vt 0.599742 0.208765
vt 0.724257 0.032846
vt 0.626998 0.037964
vt 0.617062 0.011269
vt 0.728693 0.000097
vt 0.628009 0.117720
vt 0.599415 0.117932
vt 0.217959 0.292305
vt 0.724657 0.208795
vt 0.724647 0.116203
vt 0.983063 0.038072
vt 0.858417 0.040294
vt 0.861828 0.005698
vt 0.999902 0.002113
vt 0.984175 0.116671
vt 0.857638 0.117357
vt 0.618051 0.315126
vt 0.982828 0.284506
vt 0.857681 0.206119
vt 0.984148 0.205853
vt 0.488458 0.288952
vt 0.357000 0.290336
vt 0.598037 0.038268
vt 0.355607 0.036574
vt 0.487158 0.037658
vt 0.999902 0.320288
vn 0.0544 -0.3838 0.9218
vn 0.0573 -0.3866 0.9204
vn 0.0587 0.3774 0.9242
vn 0.0558 0.3803 0.9232
vn 0.0597 0.9203 0.3866
vn 0.0568 0.9217 0.3837
vn 0.0545 -0.3839 -0.9218
vn 0.0573 -0.3867 -0.9204
vn 0.0563 -0.9243 0.3775
vn 0.0533 -0.9233 0.3805
vn 0.0558 0.3836 -0.9218
vn 0.0587 0.3864 -0.9204
vn 0.0573 -0.3776 -0.9242
vn 0.0544 -0.3805 -0.9232
vn 0.0568 0.9231 -0.3805
vn 0.0597 0.9241 -0.3775
vn -0.0563 0.9243 0.3775
vn -0.0534 0.9233 0.3804
vn -0.0534 0.9219 -0.3838
vn -0.0563 0.9206 -0.3865
vn -0.0573 0.3776 -0.9242
vn -0.0544 0.3805 -0.9232
vn -0.0568 -0.9217 -0.3838
vn -0.0597 -0.9203 -0.3865
vn -0.0573 0.3866 0.9204
vn -0.0544 0.3838 0.9218
vn 0.9962 0.0086 -0.0863
vn 0.9985 -0.0009 -0.0543
vn 0.9992 -0.0052 -0.0406
vn 0.9970 0.0053 -0.0771
vn -0.0587 -0.3774 0.9242
vn -0.0558 -0.3803 0.9232
vn -0.0568 -0.9230 -0.3805
vn -0.0597 -0.9241 -0.3775
vn -0.0597 -0.9203 0.3865
vn -0.0567 -0.9217 0.3837
vn 0.9223 -0.3572 -0.1473
vn -0.9783 -0.0777 -0.1921
vn 0.9227 -0.1490 0.3555
vn -0.9237 -0.3538 -0.1473
vn -0.9780 0.0814 -0.1921
vn 0.9237 0.3538 -0.1473
vn 0.9783 0.0777 0.1920
vn 0.9233 0.1456 -0.3555
vn 0.9783 0.0777 -0.1920
vn -0.9223 0.3573 0.1473
vn 0.6063 -0.1684 0.7772
vn 0.6063 -0.1683 0.7772
vn -0.9223 0.3573 -0.1473
vn -0.5649 -0.7655 0.3081
vn -0.5610 -0.7686 0.3075
vn -0.5847 -0.7492 0.3112
vn -0.5895 -0.7451 0.3119
vn 0.5811 -0.7552 0.3032
vn 0.5915 -0.7491 0.2982
vn 0.5583 -0.7680 0.3138
vn 0.5533 -0.7707 0.3161
vn 0.7727 -0.5406 -0.3326
vn -0.7764 -0.5361 -0.3314
vn -0.9233 -0.1455 0.3555
vn -0.9778 0.1939 -0.0795
vn 0.9214 -0.1505 -0.3583
vn 0.9227 -0.1490 -0.3555
vn -0.6102 -0.1657 0.7747
vn -0.9227 0.1490 0.3555
vn -0.9778 0.1939 0.0795
vn -0.9236 -0.3538 0.1473
vn 0.9785 0.1902 -0.0795
vn -0.9220 -0.1465 -0.3584
vn -0.9233 -0.1456 -0.3555
vn 0.9780 -0.0814 -0.1921
vn 0.9233 0.1456 0.3555
vn 0.9785 0.1902 0.0795
vn 0.9785 0.1905 0.0795
vn 0.9236 0.3538 0.1473
vn -0.9780 0.0814 0.1920
vn -0.9227 0.1490 -0.3555
vn 0.0099 -0.3893 -0.9210
vn 0.0055 -0.3878 -0.9217
vn 0.0044 -0.3774 -0.9260
vn 0.0117 -0.3776 -0.9259
vn 0.1193 -0.3672 -0.9224
vn -0.0131 -0.3892 -0.9210
vn -0.0114 -0.3767 -0.9263
vn -0.0072 -0.3779 -0.9258
vn 0.0781 0.3695 0.9260
vn -0.0103 0.3863 0.9223
vn -0.0107 0.9265 0.3760
vn 0.3625 0.5633 0.7425
vn 0.1220 0.9222 -0.3669
vn -0.0107 0.9210 -0.3894
vn -0.0117 0.3761 -0.9265
vn 0.3628 0.7418 -0.5640
vn 0.0094 -0.0971 0.9952
vn 0.0051 -0.0993 0.9950
vn -0.2387 0.1427 0.9605
vn 0.0107 0.3867 0.9221
vn -0.0004 -0.1578 0.9875
vn 0.0043 -0.0951 0.9955
vn -0.0049 -0.0952 0.9954
vn -0.0091 -0.1574 0.9875
vn 0.0034 -0.9235 -0.3836
vn 0.0089 -0.9234 -0.3837
vn -1.0000 0.0018 0.0000
vn -0.9223 0.3572 -0.1473
vn -0.9223 0.3572 0.1473
vn -0.9233 -0.1456 0.3555
vn 1.0000 -0.0019 0.0000
vn 0.9236 0.3538 -0.1473
vn 0.9223 -0.3572 0.1473
vn 0.0123 0.9265 0.3760
vn 0.0079 0.9260 0.3775
vn -0.3808 0.9246 -0.0000
vn 0.0123 0.9210 -0.3893
vn 0.0113 0.3760 -0.9266
vn 0.0069 0.3775 -0.9260
vn 0.0040 -0.1712 0.9852
vn -0.0121 -0.1688 0.9856
vn -0.0127 -0.9230 -0.3846
vn -0.0066 -0.9233 -0.3840
vn -0.0016 -0.8478 -0.5303
vn -0.9988 -0.0073 -0.0489
vn -0.9988 -0.0022 -0.0497
vn -0.9992 -0.0023 -0.0402
vn -0.9988 -0.0074 -0.0493
vn -0.0046 -0.0987 0.9951
vn -0.0116 -0.0954 0.9954
vn 0.0077 -0.2910 0.9567
vn -0.0005 -0.2911 0.9567
vn -0.0223 0.1333 -0.9908
vn 0.0005 0.2646 -0.9644
vn 0.0175 0.1479 -0.9888
vn -0.9962 0.0083 -0.0867
vn -0.9967 0.0001 -0.0813
vn -0.9968 0.0016 -0.0794
vn -0.9966 0.0089 -0.0823
vn -0.0002 0.1490 -0.9888
vn -0.0003 0.0738 -0.9973
vn -0.0004 0.0738 -0.9973
vn 0.0003 0.1487 -0.9889
vn 0.9990 0.0143 -0.0426
vn 0.9993 0.0106 -0.0367
vn 0.0003 0.1114 -0.9938
vn 0.0009 0.1495 -0.9888
vn 0.0011 0.0733 -0.9973
vn -0.0009 0.0747 -0.9972
vn 0.0001 0.1492 -0.9888
vn -0.0087 -0.1450 0.9894
vn -0.0090 -0.0932 0.9956
vn 0.0089 -0.0929 0.9956
vn 0.0082 -0.1448 0.9894
vn 0.9962 0.0082 -0.0873
vn 0.9968 0.0049 -0.0795
vn 0.0086 -0.1576 0.9875
vn 0.0002 0.1111 -0.9938
vn -0.0088 -0.2912 0.9566
vn 0.0078 -0.2911 0.9567
vn -0.0088 -0.1574 0.9875
usemtl initialShadingGroup
s 1
f 13/1/1 14/2/2 12/3/3 11/4/4
f 11/4/4 12/3/3 10/5/5 9/6/6
f 2/7/7 1/8/8 16/9/9 15/10/10
f 5/11/11 6/12/12 4/13/13 3/14/14
f 7/15/15 8/16/16 6/12/12 5/11/11
f 9/6/6 10/5/5 8/16/16 7/15/15
f 3/17/14 4/18/13 1/8/8 2/7/7
f 28/19/17 27/20/18 29/21/19 30/22/20
f 32/23/21 31/24/22 20/25/23 19/26/24
f 26/27/25 25/28/26 27/20/18 28/19/17
f 106/29/27 93/30/28 92/31/29 105/32/30
f 30/22/20 29/21/19 31/33/22 32/34/21
f 24/35/31 23/36/32 25/28/26 26/27/25
f 19/26/24 20/25/23 17/37/33 18/38/34
f 15/10/10 16/9/9 14/2/2 13/1/1
f 22/39/35 21/40/36 23/36/32 24/35/31
f 52/41/37 17/37/33 20/25/23 51/42/37
f 63/43/38 32/23/38 19/26/38 50/44/38
f 56/45/39 23/36/32 21/40/36 54/46/39
f 33/47/40 2/7/7 15/10/10 47/48/40
f 61/49/41 30/22/41 32/34/41 63/50/41
f 62/51/42 29/21/19 27/20/18 60/52/42
f 42/53/43 10/5/43 12/3/43 44/54/43
f 64/55/44 31/33/22 29/21/19 62/51/44
f 35/56/45 4/13/45 6/12/45 38/57/45
f 41/58/46 9/6/6 7/15/15 39/59/46
f 14/2/47 46/60/48 44/54/48
f 44/54/48 12/3/48 14/2/47
f 39/59/49 7/15/15 5/11/11 37/61/49
f 49/62/50 18/38/51 22/39/52 53/63/53
f 46/60/54 14/2/55 16/9/56 48/64/57
f 1/8/58 36/65/58 48/64/58
f 48/64/58 16/9/58 1/8/58
f 18/38/59 49/62/59 50/44/59
f 50/44/59 19/26/59 18/38/59
f 45/66/60 13/1/1 11/4/4 43/67/60
f 59/68/61 28/19/61 30/22/61 61/49/61
f 51/42/62 20/25/23 31/24/22 64/69/63
f 24/35/64 55/70/64 53/63/64
f 53/63/64 22/39/64 24/35/64
f 43/67/65 11/4/4 9/6/6 41/58/65
f 57/71/66 26/27/66 28/19/66 59/68/66
f 47/48/67 15/10/10 13/1/1 45/66/67
f 38/57/68 6/12/68 8/16/68 40/72/68
f 34/73/69 3/17/14 2/7/7 33/47/70
f 36/65/71 1/8/71 4/18/71 35/74/71
f 58/75/72 25/28/26 23/36/32 56/45/72
f 40/72/73 8/16/73 10/5/73 42/53/74
f 60/52/75 27/20/18 25/28/26 58/75/75
f 55/70/76 24/35/76 26/27/76 57/71/76
f 37/61/77 5/11/11 3/14/14 34/76/77
f 35/77/78 80/78/79 79/79/80 36/80/81
f 66/81/82 63/82/83 50/83/84 65/84/85
f 70/85/86 55/86/87 57/87/88 69/88/89
f 68/89/90 59/90/91 61/91/92 67/92/93
f 67/92/93 61/91/92 63/82/83 66/81/82
f 46/93/94 85/94/95 84/95/96 44/96/97
f 85/94/98 100/97/99 99/98/100 71/99/101
f 36/80/81 79/79/80 90/100/102 48/101/103
f 34/102/69 33/103/70 77/104/104
f 37/105/77 34/102/69 77/104/104
f 39/106/105 37/105/77 77/104/104
f 41/107/106 39/106/105 77/104/104
f 43/108/65 41/107/106 77/104/104
f 45/109/107 43/108/65 77/104/104
f 47/110/67 45/109/107 77/104/104
f 33/103/70 47/110/67 77/104/104
f 51/111/62 64/112/63 78/113/108
f 64/112/63 62/114/44 78/113/108
f 62/114/44 60/115/109 78/113/108
f 60/115/109 58/116/75 78/113/108
f 58/116/75 56/117/72 78/113/108
f 56/117/72 54/118/39 78/113/108
f 54/118/39 52/119/110 78/113/108
f 52/119/110 51/111/62 78/113/108
f 42/120/111 83/121/112 82/122/113 40/123/114
f 44/96/97 84/95/96 83/121/112 42/120/111
f 38/124/115 81/125/116 80/78/79 35/77/78
f 40/123/114 82/122/113 81/125/116 38/124/115
f 100/97/99 98/126/117 94/127/118 99/98/100
f 65/84/85 50/83/84 49/128/119 76/129/120
f 74/130/121 75/131/121 72/132/121 73/133/121
f 96/134/122 88/135/123 87/136/124 95/137/125
f 89/138/121 74/130/121 73/133/121 86/139/121
f 84/95/96 70/85/86 69/88/89 83/121/112
f 81/125/116 67/92/93 66/81/82 80/78/79
f 82/122/113 68/89/90 67/92/93 81/125/116
f 80/78/79 66/81/82 65/84/85 79/79/80
f 71/99/126 53/140/127 55/86/87 70/85/86
f 98/126/117 86/139/128 73/133/129 94/127/118
f 85/94/95 71/99/126 70/85/86 84/95/96
f 91/141/130 74/130/131 89/138/131 97/142/132
f 48/143/133 102/144/134 101/145/135 46/146/136
f 90/147/137 103/148/138 102/144/139 48/143/140
f 93/30/28 72/149/141 75/131/142 92/31/29
f 92/31/143 75/131/131 74/130/131 91/141/130
f 49/150/144 105/32/145 104/151/146 76/152/147
f 99/98/100 94/127/118 93/153/148 106/154/149
f 88/135/121 89/138/121 86/139/121 87/155/121
f 69/88/89 57/87/88 59/90/91 68/89/90
f 101/156/150 95/157/151 98/126/117 100/97/99
f 53/158/152 106/29/27 105/32/30 49/150/153
f 46/93/154 101/156/150 100/97/99 85/94/98
f 97/142/132 89/138/131 88/135/131 96/134/155
f 18/38/34 17/37/33 21/40/36 22/39/35
f 54/46/110 21/40/36 17/37/33 52/41/110
f 94/127/118 73/133/129 72/132/156 93/153/148
f 105/32/145 92/31/143 91/141/130 104/151/146
f 95/157/151 87/155/157 86/139/128 98/126/117
f 79/79/80 65/84/85 76/129/120 90/100/102
f 76/152/147 104/151/146 103/148/138 90/147/137
f 103/148/138 97/142/132 96/134/155 102/144/139
f 104/151/146 91/141/130 97/142/132 103/148/138
f 102/144/134 96/134/122 95/137/125 101/145/135
f 71/99/101 99/98/100 106/154/149 53/140/158
f 83/121/112 69/88/89 68/89/90 82/122/113
