# author: headus 3D tools
#  using: ply2obj v1.8
#   from: uvlayout v2.09.04
# 12 vertices
v 11386.3950 3087.4200 5704.0120
v 11386.3950 3087.4200 5145.2649
v 12403.9652 3087.4200 5145.2649
v 12403.9652 3087.4200 5704.0120
v 11693.8911 3376.2368 5704.0120
v 12403.9652 3137.9995 5704.0120
v 12403.9652 3137.9995 5145.2649
v 11629.2114 3383.4224 5145.2649
v 12403.9652 3087.4200 4586.5178
v 11386.3950 3087.4200 4586.5178
v 11618.0551 3383.7837 4586.5178
v 12403.9652 3137.9995 4586.5178
# 12 normals
vn 0.000000 -1.000000 0.000000
vn 0.309620 0.950772 -0.011719
vn 0.304920 0.952298 -0.007233
vn 0.304737 0.952390 -0.007019
vn 0.000000 0.000000 1.000000
vn 1.000000 0.000000 0.000000
vn 0.000000 0.000000 -1.000000
vn -0.780474 0.625038 0.007935
vn -0.754624 0.655497 0.027254
vn -0.754013 0.656198 0.027681
vn 0.300128 0.953824 -0.002625
vn -0.727431 0.684521 0.046481
# 19 uv coords
vt 0.408956 0.446865
vt 0.408903 0.468623
vt 0.408160 0.819895
vt 0.005780 0.879495
vt 0.146060 0.461775
vt 0.166821 0.468580
vt 0.166742 0.793248
vt 0.166974 0.446503
vt 0.403249 0.984836
vt 0.160877 0.976075
vt 0.167939 0.005780
vt 0.409931 0.006290
vt 0.650935 0.447562
vt 0.650991 0.469620
vt 0.671922 0.463336
vt 0.801680 0.884443
vt 0.649487 0.826525
vt 0.645977 0.989937
vt 0.651921 0.006847
# 10 polygons
s 2
g Box056
f 1/11/1 2/12/1 3/1/1 4/8/1
s 4
f 5/7/2 6/6/2 7/2/3 8/3/4
s 8
f 1/4/5 4/5/5 6/6/5 5/7/5
s 16
f 4/8/6 3/1/6 7/2/6 6/6/6
s 32
f 9/15/7 10/16/7 11/17/7 12/14/7
s 64
f 10/18/8 2/9/9 8/3/10 11/17/8
s 2
f 2/12/1 10/19/1 9/13/1 3/1/1
s 4
f 7/2/3 12/14/11 11/17/11 8/3/4
s 16
f 3/1/6 9/13/6 12/14/6 7/2/6
s 64
f 2/9/9 1/10/12 5/7/12 8/3/10
# totals: 12 19 12 10
