# author: headus 3D tools
#  using: ply2obj v1.8
#   from: uvlayout v2.09.04
# 168 vertices
v 28.55500 482.26700 84.14000
v 28.55500 486.88720 3.62460
v 28.55500 557.47324 6.35000
v 28.55500 555.87143 86.98189
v 6.74330 555.87143 86.98189
v 6.74330 557.47324 6.35000
v 6.74330 486.88720 3.62460
v 6.74330 482.26700 84.14000
v 28.55500 496.12759 -157.40630
v 6.74330 496.12759 -157.40630
v 6.74330 560.67679 -154.91400
v 28.55500 560.67679 -154.91400
v 6.74330 559.07499 -74.28200
v 28.55500 559.07499 -74.28200
v 28.55509 554.26961 167.61390
v 6.74330 554.26961 167.61390
v 6.74330 477.64683 164.65540
v 28.55509 477.64683 164.65540
v 28.55500 491.50741 -76.89078
v 6.74330 491.50741 -76.89078
v 28.55500 486.01861 -91.23100
v 28.55500 481.72202 -10.59720
v 28.55500 414.95432 -10.59720
v 28.55500 410.65772 -91.23090
v 6.74330 410.65772 -91.23100
v 6.74330 414.95432 -10.59720
v 6.74330 481.72202 -10.59720
v 6.74330 486.01861 -91.23090
v 28.55500 406.36112 -171.86472
v 6.74320 406.36112 -171.86472
v 6.74330 490.31521 -171.86472
v 28.55500 490.31521 -171.86472
v 28.55500 477.42542 70.03650
v 6.74330 477.42542 70.03650
v 28.55509 473.12882 150.67019
v 6.74330 473.12882 150.67019
v 6.74330 423.54752 150.67019
v 28.55500 423.54752 150.67019
v 28.55500 419.25092 70.03650
v 6.74330 419.25092 70.03650
v 28.55500 341.20503 82.30471
v 28.55500 339.69939 0.45221
v 28.55500 410.82103 -3.51930
v 28.55509 415.63923 78.14821
v 6.74330 415.63923 78.14821
v 6.74330 410.82103 -3.51930
v 6.74330 339.69939 0.45221
v 6.74330 341.20503 82.30471
v 28.55500 336.68802 -163.25280
v 6.74330 336.68802 -163.25280
v 6.74330 401.18482 -166.85442
v 28.55500 401.18482 -166.85442
v 6.74330 406.00290 -85.18682
v 28.55500 406.00290 -85.18682
v 28.55509 420.45723 159.81569
v 6.74330 420.45731 159.81569
v 6.74330 342.71070 164.15720
v 28.55509 342.71070 164.15720
v 28.55500 338.19370 -81.40030
v 6.74330 338.19370 -81.40030
v 0.00050 -0.00012 -9.01039
v -3.08130 -0.00012 -8.46700
v -3.08130 115.29580 -8.46700
v 0.00050 115.29580 -9.01039
v -5.79139 -0.00012 -6.90240
v -5.79139 115.29580 -6.90240
v -7.80280 -0.00012 -4.50520
v -7.80280 115.29580 -4.50520
v -8.87310 -0.00012 -1.56460
v -8.87310 115.29580 -1.56460
v -8.87310 -0.00012 1.56480
v -8.87310 115.29580 1.56480
v -7.80280 -0.00012 4.50541
v -7.80280 115.29580 4.50541
v -5.79139 -0.00012 6.90261
v -5.79139 115.29580 6.90261
v -3.08130 -0.00012 8.46721
v -3.08130 115.29580 8.46721
v 0.00050 -0.00012 9.01060
v 0.00050 115.29580 9.01060
v 3.08230 -0.00012 8.46721
v 3.08230 115.29580 8.46721
v 5.79240 -0.00012 6.90261
v 5.79240 115.29580 6.90261
v 7.80380 -0.00012 4.50541
v 7.80380 115.29580 4.50541
v 8.87410 -0.00012 1.56480
v 8.87410 115.29580 1.56480
v 8.87410 -0.00012 -1.56460
v 8.87410 115.29580 -1.56460
v 7.80380 -0.00012 -4.50520
v 7.80380 115.29580 -4.50520
v 5.79240 -0.00012 -6.90240
v 5.79240 115.29580 -6.90240
v 3.08230 -0.00012 -8.46700
v 3.08230 115.29580 -8.46700
v -3.08130 230.59160 -8.46700
v 0.00050 230.59160 -9.01039
v -5.79139 230.59160 -6.90240
v -7.80280 230.59160 -4.50520
v -8.87310 230.59160 -1.56460
v -8.87310 230.59160 1.56480
v -7.80280 230.59160 4.50541
v -5.79139 230.59160 6.90261
v -3.08130 230.59160 8.46721
v 0.00050 230.59160 9.01060
v 3.08230 230.59160 8.46721
v 5.79240 230.59160 6.90261
v 7.80380 230.59160 4.50541
v 8.87410 230.59160 1.56480
v 8.87410 230.59160 -1.56460
v 7.80380 230.59160 -4.50520
v 5.79240 230.59160 -6.90240
v 3.08230 230.59160 -8.46700
v -3.08130 345.88742 -8.46700
v 0.00050 345.88742 -9.01039
v -5.79139 345.88742 -6.90240
v -7.80280 345.88742 -4.50520
v -8.87310 345.88742 -1.56460
v -8.87310 345.88742 1.56480
v -7.80280 345.88742 4.50541
v -5.79139 345.88742 6.90261
v -3.08130 345.88742 8.46721
v 0.00050 345.88742 9.01060
v 3.08230 345.88742 8.46721
v 5.79240 345.88742 6.90261
v 7.80380 345.88742 4.50541
v 8.87410 345.88742 1.56480
v 8.87410 345.88742 -1.56460
v 7.80380 345.88742 -4.50520
v 5.79240 345.88742 -6.90240
v 3.08230 345.88742 -8.46700
v -3.08130 461.18332 -8.46700
v 0.00050 461.18332 -9.01039
v -5.79139 461.18332 -6.90240
v -7.80280 461.18332 -4.50520
v -8.87310 461.18332 -1.56460
v -8.87310 461.18332 1.56480
v -7.80280 461.18332 4.50541
v -5.79139 461.18332 6.90261
v -3.08130 461.18332 8.46721
v 0.00050 461.18332 9.01060
v 3.08230 461.18332 8.46721
v 5.79240 461.18332 6.90261
v 7.80380 461.18332 4.50541
v 8.87410 461.18332 1.56480
v 8.87410 461.18332 -1.56460
v 7.80380 461.18332 -4.50520
v 5.79240 461.18332 -6.90240
v 3.08230 461.18332 -8.46700
v -3.08130 576.47909 -8.46700
v 0.00050 576.47909 -9.01039
v -5.79139 576.47909 -6.90240
v -7.80280 576.47909 -4.50520
v -8.87310 576.47909 -1.56460
v -8.87310 576.47909 1.56480
v -7.80280 576.47909 4.50541
v -5.79139 576.47909 6.90261
v -3.08130 576.47909 8.46721
v 0.00050 576.47909 9.01060
v 3.08230 576.47909 8.46721
v 5.79240 576.47909 6.90261
v 7.80380 576.47909 4.50541
v 8.87410 576.47909 1.56480
v 8.87410 576.47909 -1.56460
v 7.80380 576.47909 -4.50520
v 5.79240 576.47909 -6.90240
v 3.08230 576.47909 -8.46700
# 72 normals
vn 0.707044 -0.703809 -0.067082
vn 0.707044 0.706983 -0.012513
vn -0.707044 0.706983 -0.012513
vn -0.707044 -0.703809 -0.067082
vn 0.580327 -0.536013 -0.612983
vn -0.580327 -0.536013 -0.612983
vn -0.580327 0.581792 -0.569798
vn 0.580327 0.581792 -0.569798
vn 0.574315 0.572728 0.584722
vn -0.574315 0.572728 0.584722
vn -0.574315 -0.616126 0.538882
vn 0.574315 -0.616126 0.538882
vn 0.707044 0.698010 0.112189
vn 0.707044 -0.698010 0.112189
vn -0.707044 -0.698010 0.112189
vn -0.707044 0.698010 0.112189
vn 0.569371 -0.625618 -0.533083
vn -0.569371 -0.625618 -0.533083
vn -0.569371 0.625618 -0.533083
vn 0.569371 0.625618 -0.533083
vn 0.586126 0.525392 0.616676
vn -0.586126 0.525392 0.616676
vn -0.586126 -0.525392 0.616676
vn 0.586126 -0.525392 0.616676
vn 0.707044 -0.705915 -0.039980
vn 0.707044 0.705518 -0.046084
vn -0.707044 0.705518 -0.046084
vn -0.707044 -0.705915 -0.039980
vn 0.583471 -0.573979 -0.574437
vn -0.583471 -0.573979 -0.574437
vn -0.577886 0.540988 -0.610999
vn 0.577886 0.540988 -0.610999
vn 0.576726 0.611518 0.541537
vn -0.576817 0.611335 0.541537
vn -0.571690 -0.580327 0.579900
vn 0.571690 -0.580327 0.579900
vn 0.000000 0.000000 -1.000000
vn -0.341909 0.000000 -0.939633
vn -0.642709 0.000000 -0.765916
vn -0.865928 0.000000 -0.500000
vn -0.984710 0.000000 -0.173595
vn -0.984710 0.000000 0.173595
vn -0.865928 0.000000 0.500000
vn -0.642709 0.000000 0.765916
vn -0.341909 0.000000 0.939633
vn 0.000000 0.000000 1.000000
vn 0.341909 0.000000 0.939633
vn 0.642709 0.000000 0.765916
vn 0.865928 0.000000 0.500000
vn 0.984710 0.000000 0.173595
vn 0.984710 0.000000 -0.173595
vn 0.865928 0.000000 -0.500000
vn 0.642709 0.000000 -0.765916
vn 0.341909 0.000000 -0.939633
vn -0.253891 0.670024 -0.697430
vn 0.000000 0.670024 -0.742233
vn -0.477171 0.669932 -0.568638
vn -0.642709 0.670024 -0.371116
vn -0.730910 0.670024 -0.128884
vn -0.731032 0.669932 0.128884
vn -0.642831 0.669932 0.371116
vn -0.477171 0.669932 0.568638
vn -0.253891 0.670024 0.697430
vn 0.000000 0.670024 0.742233
vn 0.253891 0.670024 0.697430
vn 0.477171 0.669932 0.568638
vn 0.642831 0.669932 0.371116
vn 0.731032 0.669932 0.128884
vn 0.731032 0.669932 -0.128884
vn 0.642831 0.669932 -0.371116
vn 0.477171 0.669932 -0.568638
vn 0.253891 0.669932 -0.697522
# 234 uv coords
vt 0.564538 0.054547
vt 0.692801 0.049728
vt 0.699123 0.161970
vt 0.571133 0.171591
vt 0.821064 0.044914
vt 0.827116 0.152356
vt 0.828389 0.772805
vt 0.699958 0.768215
vt 0.698097 0.661972
vt 0.826288 0.652888
vt 0.569907 0.671057
vt 0.571528 0.763629
vt 0.277296 0.837887
vt 0.407385 0.843234
vt 0.403089 0.956519
vt 0.272794 0.956447
vt 0.537479 0.848583
vt 0.533378 0.956591
vt 0.080095 0.188885
vt 0.075115 0.188885
vt 0.085076 0.188885
vt 0.090055 0.188885
vt 0.010371 0.188885
vt 0.015351 0.188885
vt 0.020332 0.188885
vt 0.025312 0.188885
vt 0.030292 0.188885
vt 0.035273 0.188885
vt 0.040253 0.188885
vt 0.045233 0.188885
vt 0.050213 0.188885
vt 0.055193 0.188885
vt 0.060174 0.188885
vt 0.065154 0.188885
vt 0.070134 0.188885
vt 0.080095 0.372380
vt 0.075115 0.372380
vt 0.085076 0.372380
vt 0.090055 0.372380
vt 0.010371 0.372380
vt 0.015351 0.372380
vt 0.020332 0.372380
vt 0.025312 0.372380
vt 0.030292 0.372380
vt 0.035273 0.372380
vt 0.040253 0.372380
vt 0.045233 0.372380
vt 0.050213 0.372380
vt 0.055193 0.372380
vt 0.060174 0.372380
vt 0.065154 0.372380
vt 0.070134 0.372380
vt 0.080095 0.555874
vt 0.075115 0.555874
vt 0.085076 0.555874
vt 0.090055 0.555874
vt 0.010371 0.555874
vt 0.015351 0.555874
vt 0.020332 0.555874
vt 0.025312 0.555874
vt 0.030292 0.555874
vt 0.035273 0.555874
vt 0.040253 0.555874
vt 0.045233 0.555874
vt 0.050213 0.555874
vt 0.055193 0.555874
vt 0.060174 0.555874
vt 0.065154 0.555874
vt 0.070134 0.555874
vt 0.080095 0.739369
vt 0.075115 0.739369
vt 0.085076 0.739369
vt 0.090055 0.739369
vt 0.010371 0.739369
vt 0.015351 0.739369
vt 0.020332 0.739369
vt 0.025312 0.739369
vt 0.030292 0.739369
vt 0.035273 0.739369
vt 0.040253 0.739369
vt 0.045233 0.739369
vt 0.050213 0.739369
vt 0.055193 0.739369
vt 0.060174 0.739369
vt 0.065154 0.739369
vt 0.070134 0.739369
vt 0.408813 0.808549
vt 0.538906 0.813901
vt 0.533357 0.991307
vt 0.403066 0.991230
vt 0.278723 0.803202
vt 0.668997 0.819254
vt 0.667572 0.853941
vt 0.698357 0.957993
vt 0.663669 0.956676
vt 0.702261 0.855261
vt 0.663646 0.991393
vt 0.272775 0.991158
vt 0.147206 0.832528
vt 0.148633 0.797844
vt 0.142484 0.991085
vt 0.142502 0.956368
vt 0.112514 0.831213
vt 0.107816 0.955051
vt 0.827150 0.807496
vt 0.698719 0.802906
vt 0.695645 0.627347
vt 0.823833 0.618264
vt 0.570288 0.798320
vt 0.956819 0.777391
vt 0.955579 0.812083
vt 0.567455 0.636430
vt 0.952020 0.609165
vt 0.954478 0.643796
vt 0.991528 0.776780
vt 0.989186 0.643186
vt 0.441859 0.793733
vt 0.443097 0.759038
vt 0.407008 0.680748
vt 0.441717 0.680139
vt 0.408389 0.759645
vt 0.439264 0.645511
vt 0.691499 0.015040
vt 0.819758 0.010227
vt 0.829716 0.186972
vt 0.701725 0.196585
vt 0.563235 0.019857
vt 0.948018 0.005390
vt 0.949325 0.040085
vt 0.989766 0.140779
vt 0.955108 0.142735
vt 0.983985 0.038134
vt 0.957708 0.177354
vt 0.573734 0.206208
vt 0.436276 0.059368
vt 0.434973 0.024678
vt 0.445743 0.215827
vt 0.443141 0.181211
vt 0.401618 0.061321
vt 0.408483 0.183165
vt 0.733475 0.360636
vt 0.861724 0.365750
vt 0.859450 0.473340
vt 0.731097 0.473035
vt 0.989974 0.370863
vt 0.987802 0.473647
vt 0.605225 0.355518
vt 0.602745 0.472722
vt 0.474394 0.472414
vt 0.476973 0.350405
vt 0.494484 0.614172
vt 0.366054 0.609574
vt 0.364200 0.503328
vt 0.492391 0.494252
vt 0.237623 0.604977
vt 0.236008 0.512406
vt 0.620582 0.485176
vt 0.622914 0.618769
vt 0.109194 0.600380
vt 0.107816 0.521483
vt 0.368229 0.233100
vt 0.498430 0.228414
vt 0.506356 0.336209
vt 0.376530 0.346163
vt 0.628635 0.223720
vt 0.636177 0.326251
vt 0.238025 0.237764
vt 0.246704 0.356094
vt 0.116885 0.366029
vt 0.107816 0.242435
vt 0.095036 0.739369
vt 0.095036 0.922863
vt 0.090055 0.922863
vt 0.095036 0.555874
vt 0.085076 0.922863
vt 0.095036 0.372380
vt 0.080095 0.922863
vt 0.095036 0.188885
vt 0.075115 0.922863
vt 0.090055 0.005390
vt 0.095036 0.005390
vt 0.070134 0.922863
vt 0.085076 0.005390
vt 0.065154 0.922863
vt 0.080095 0.005390
vt 0.060174 0.922863
vt 0.075115 0.005390
vt 0.055193 0.922863
vt 0.070134 0.005390
vt 0.050213 0.922863
vt 0.065154 0.005390
vt 0.045233 0.922863
vt 0.060174 0.005390
vt 0.040253 0.922863
vt 0.055193 0.005390
vt 0.035273 0.922863
vt 0.050213 0.005390
vt 0.030292 0.922863
vt 0.045233 0.005390
vt 0.025312 0.922863
vt 0.040253 0.005390
vt 0.020332 0.922863
vt 0.035273 0.005390
vt 0.015351 0.922863
vt 0.030292 0.005390
vt 0.010371 0.922863
vt 0.025312 0.005390
vt 0.005390 0.922863
vt 0.005390 0.739369
vt 0.020332 0.005390
vt 0.005390 0.555874
vt 0.015351 0.005390
vt 0.005390 0.372380
vt 0.010371 0.005390
vt 0.005390 0.188885
vt 0.005390 0.005390
vt 0.150306 0.713553
vt 0.145512 0.714905
vt 0.140546 0.714535
vt 0.136004 0.712489
vt 0.132438 0.709014
vt 0.130274 0.704528
vt 0.129775 0.699573
vt 0.131002 0.694745
vt 0.133805 0.690629
vt 0.137846 0.687720
vt 0.142640 0.686368
vt 0.147606 0.686737
vt 0.152148 0.688783
vt 0.155715 0.692258
vt 0.157878 0.696744
vt 0.158377 0.701699
vt 0.157151 0.706527
vt 0.154348 0.710643
# 145 polygons
s 2
g Box058
f 1/147/1 2/141/1 3/144/2 4/148/2
s 4
f 5/1/3 6/2/3 7/3/4 8/4/4
s 8
f 8/4/4 7/3/4 2/126/1 1/134/1
s 16
f 9/130/5 10/131/6 11/129/7 12/132/8
s 32
f 13/5/3 6/2/3 3/123/2 14/124/2
s 64
f 15/139/9 16/135/10 17/138/11 18/140/12
s 2
f 19/142/1 9/145/5 12/146/8 14/143/2
f 2/141/1 19/142/1 14/143/2 3/144/2
f 4/148/2 15/149/9 18/150/12 1/147/1
s 4
f 13/5/3 11/129/7 10/131/6 20/6/4
f 6/2/3 13/5/3 20/6/4 7/3/4
f 8/4/4 17/138/11 16/135/10 5/1/3
s 8
f 20/6/4 10/131/6 9/133/5 19/125/1
f 7/3/4 20/6/4 19/125/1 2/126/1
f 1/134/1 18/137/12 17/138/11 8/4/4
s 32
f 5/1/3 16/135/10 15/136/9 4/127/2
f 6/2/3 5/1/3 4/127/2 3/123/2
f 14/124/2 12/128/8 11/129/7 13/5/3
s 2
g Box059
f 21/151/13 22/152/13 23/153/14 24/154/14
s 4
f 25/7/15 26/8/15 27/9/16 28/10/16
s 8
f 24/105/14 23/106/14 26/8/15 25/7/15
s 16
f 29/115/17 30/110/18 31/114/19 32/116/20
s 32
f 33/112/13 22/107/13 27/9/16 34/11/16
s 64
f 35/119/21 36/120/22 37/118/23 38/121/24
s 2
f 33/155/13 35/159/21 38/160/24 39/156/14
f 22/152/13 33/155/13 39/156/14 23/153/14
f 24/154/14 29/157/17 32/158/20 21/151/13
s 4
f 40/12/15 37/118/23 36/120/22 34/11/16
f 26/8/15 40/12/15 34/11/16 27/9/16
f 28/10/16 31/114/19 30/110/18 25/7/15
s 8
f 39/109/14 38/117/24 37/118/23 40/12/15
f 23/106/14 39/109/14 40/12/15 26/8/15
f 25/7/15 30/110/18 29/111/17 24/105/14
s 32
f 21/108/13 32/113/20 31/114/19 28/10/16
f 22/107/13 21/108/13 28/10/16 27/9/16
f 34/11/16 36/120/22 35/122/21 33/112/13
s 2
g Box060
f 41/167/25 42/161/25 43/164/26 44/168/26
s 4
f 45/13/27 46/14/27 47/15/28 48/16/28
s 8
f 48/16/28 47/15/28 42/90/25 41/98/25
s 16
f 49/94/29 50/95/30 51/93/31 52/96/32
s 32
f 53/17/27 46/14/27 43/87/26 54/88/26
s 64
f 55/103/33 56/99/34 57/102/35 58/104/36
s 2
f 59/162/25 49/165/29 52/166/32 54/163/26
f 42/161/25 59/162/25 54/163/26 43/164/26
f 44/168/26 55/169/33 58/170/36 41/167/25
s 4
f 53/17/27 51/93/31 50/95/30 60/18/28
f 46/14/27 53/17/27 60/18/28 47/15/28
f 48/16/28 57/102/35 56/99/34 45/13/27
s 8
f 60/18/28 50/95/30 49/97/29 59/89/25
f 47/15/28 60/18/28 59/89/25 42/90/25
f 41/98/25 58/101/36 57/102/35 48/16/28
s 32
f 45/13/27 56/99/34 55/100/33 44/91/26
f 46/14/27 45/13/27 44/91/26 43/87/26
f 54/88/26 52/92/32 51/93/31 53/17/27
s 8
g Cylinder003
f 61/187/37 62/185/38 63/19/38 64/20/37
f 62/185/38 65/183/39 66/21/39 63/19/38
f 65/183/39 67/180/40 68/22/40 66/21/39
f 67/180/40 69/181/41 70/178/41 68/22/40
f 69/216/41 71/214/42 72/23/42 70/215/41
f 71/214/42 73/212/43 74/24/43 72/23/42
f 73/212/43 75/210/44 76/25/44 74/24/43
f 75/210/44 77/207/45 78/26/45 76/25/44
f 77/207/45 79/205/46 80/27/46 78/26/45
f 79/205/46 81/203/47 82/28/47 80/27/46
f 81/203/47 83/201/48 84/29/48 82/28/47
f 83/201/48 85/199/49 86/30/49 84/29/48
f 85/199/49 87/197/50 88/31/50 86/30/49
f 87/197/50 89/195/51 90/32/51 88/31/50
f 89/195/51 91/193/52 92/33/52 90/32/51
f 91/193/52 93/191/53 94/34/53 92/33/52
f 93/191/53 95/189/54 96/35/54 94/34/53
f 95/189/54 61/187/37 64/20/37 96/35/54
f 64/20/37 63/19/38 97/36/38 98/37/37
f 63/19/38 66/21/39 99/38/39 97/36/38
f 66/21/39 68/22/40 100/39/40 99/38/39
f 68/22/40 70/178/41 101/176/41 100/39/40
f 70/215/41 72/23/42 102/40/42 101/213/41
f 72/23/42 74/24/43 103/41/43 102/40/42
f 74/24/43 76/25/44 104/42/44 103/41/43
f 76/25/44 78/26/45 105/43/45 104/42/44
f 78/26/45 80/27/46 106/44/46 105/43/45
f 80/27/46 82/28/47 107/45/47 106/44/46
f 82/28/47 84/29/48 108/46/48 107/45/47
f 84/29/48 86/30/49 109/47/49 108/46/48
f 86/30/49 88/31/50 110/48/50 109/47/49
f 88/31/50 90/32/51 111/49/51 110/48/50
f 90/32/51 92/33/52 112/50/52 111/49/51
f 92/33/52 94/34/53 113/51/53 112/50/52
f 94/34/53 96/35/54 114/52/54 113/51/53
f 96/35/54 64/20/37 98/37/37 114/52/54
f 98/37/37 97/36/38 115/53/38 116/54/37
f 97/36/38 99/38/39 117/55/39 115/53/38
f 99/38/39 100/39/40 118/56/40 117/55/39
f 100/39/40 101/176/41 119/174/41 118/56/40
f 101/213/41 102/40/42 120/57/42 119/211/41
f 102/40/42 103/41/43 121/58/43 120/57/42
f 103/41/43 104/42/44 122/59/44 121/58/43
f 104/42/44 105/43/45 123/60/45 122/59/44
f 105/43/45 106/44/46 124/61/46 123/60/45
f 106/44/46 107/45/47 125/62/47 124/61/46
f 107/45/47 108/46/48 126/63/48 125/62/47
f 108/46/48 109/47/49 127/64/49 126/63/48
f 109/47/49 110/48/50 128/65/50 127/64/49
f 110/48/50 111/49/51 129/66/51 128/65/50
f 111/49/51 112/50/52 130/67/52 129/66/51
f 112/50/52 113/51/53 131/68/53 130/67/52
f 113/51/53 114/52/54 132/69/54 131/68/53
f 114/52/54 98/37/37 116/54/37 132/69/54
f 116/54/37 115/53/38 133/70/38 134/71/37
f 115/53/38 117/55/39 135/72/39 133/70/38
f 117/55/39 118/56/40 136/73/40 135/72/39
f 118/56/40 119/174/41 137/171/41 136/73/40
f 119/211/41 120/57/42 138/74/42 137/209/41
f 120/57/42 121/58/43 139/75/43 138/74/42
f 121/58/43 122/59/44 140/76/44 139/75/43
f 122/59/44 123/60/45 141/77/45 140/76/44
f 123/60/45 124/61/46 142/78/46 141/77/45
f 124/61/46 125/62/47 143/79/47 142/78/46
f 125/62/47 126/63/48 144/80/48 143/79/47
f 126/63/48 127/64/49 145/81/49 144/80/48
f 127/64/49 128/65/50 146/82/50 145/81/49
f 128/65/50 129/66/51 147/83/51 146/82/50
f 129/66/51 130/67/52 148/84/52 147/83/51
f 130/67/52 131/68/53 149/85/53 148/84/52
f 131/68/53 132/69/54 150/86/54 149/85/53
f 132/69/54 116/54/37 134/71/37 150/86/54
f 134/71/37 133/70/38 151/177/55 152/179/56
f 133/70/38 135/72/39 153/175/57 151/177/55
f 135/72/39 136/73/40 154/173/58 153/175/57
f 136/73/40 137/171/41 155/172/59 154/173/58
f 137/209/41 138/74/42 156/206/60 155/208/59
f 138/74/42 139/75/43 157/204/61 156/206/60
f 139/75/43 140/76/44 158/202/62 157/204/61
f 140/76/44 141/77/45 159/200/63 158/202/62
f 141/77/45 142/78/46 160/198/64 159/200/63
f 142/78/46 143/79/47 161/196/65 160/198/64
f 143/79/47 144/80/48 162/194/66 161/196/65
f 144/80/48 145/81/49 163/192/67 162/194/66
f 145/81/49 146/82/50 164/190/68 163/192/67
f 146/82/50 147/83/51 165/188/69 164/190/68
f 147/83/51 148/84/52 166/186/70 165/188/69
f 148/84/52 149/85/53 167/184/71 166/186/70
f 149/85/53 150/86/54 168/182/72 167/184/71
f 150/86/54 134/71/37 152/179/56 168/182/72
s 1
f 168/217/72 152/218/56 151/219/55 153/220/57 154/221/58 155/222/59 156/223/60 157/224/61 158/225/62 159/226/63 160/227/64 161/228/65 162/229/66 163/230/67 164/231/68 165/232/69 166/233/70 167/234/71
# totals: 168 234 72 145
